<svg xmlns="http://www.w3.org/2000/svg" xmlns:xlink="http://www.w3.org/1999/xlink" width="1080" zoomAndPan="magnify" viewBox="0 0 810 809.999993" height="1080" preserveAspectRatio="xMidYMid meet" version="1.0"><defs><clipPath id="dddf69a57c"><path d="M 81 81 L 729 81 L 729 729 L 81 729 Z M 81 81 " clip-rule="nonzero"/></clipPath></defs><g clip-path="url(#dddf69a57c)"><path fill="#ffffff" d="M 404.945312 81.054688 C 494.410156 81.054688 575.410156 117.316406 634.054688 175.945312 C 692.699219 234.574219 728.960938 315.574219 728.960938 405.054688 C 728.960938 494.519531 692.699219 575.519531 634.054688 634.164062 C 575.410156 692.804688 494.425781 729.054688 404.945312 729.054688 C 315.480469 729.054688 234.480469 692.792969 175.835938 634.164062 C 117.195312 575.53125 80.945312 494.519531 80.945312 405.054688 C 80.945312 315.589844 117.207031 234.589844 175.835938 175.945312 C 234.46875 117.300781 315.480469 81.054688 404.945312 81.054688 Z M 621.324219 188.675781 C 565.945312 133.300781 489.457031 99.050781 404.945312 99.050781 C 320.449219 99.050781 243.945312 133.300781 188.566406 188.675781 C 133.191406 244.054688 98.941406 320.542969 98.941406 405.054688 C 98.941406 489.550781 133.191406 566.054688 188.566406 621.433594 C 243.945312 676.808594 320.4375 711.058594 404.945312 711.058594 C 489.441406 711.058594 565.945312 676.808594 621.324219 621.433594 C 676.699219 566.054688 710.949219 489.5625 710.949219 405.054688 C 710.949219 320.558594 676.699219 244.054688 621.324219 188.675781 Z M 621.324219 188.675781 " fill-opacity="1" fill-rule="nonzero"/></g><path fill="#ffffff" d="M 404.945312 202.554688 C 465.519531 202.554688 514.621094 246.644531 514.621094 301.035156 C 514.621094 341.023438 425.238281 527.351562 404.664062 576.152344 C 375.449219 506.871094 315.507812 389.800781 298.203125 323.648438 L 298.1875 323.621094 C 296.296875 316.371094 295.285156 308.8125 295.285156 301.035156 C 295.273438 246.644531 344.371094 202.554688 404.945312 202.554688 Z M 404.945312 248.75 C 376.109375 248.75 352.726562 272.132812 352.726562 300.96875 C 352.726562 329.804688 376.109375 353.1875 404.945312 353.1875 C 433.78125 353.1875 457.164062 329.804688 457.164062 300.96875 C 457.164062 272.132812 433.78125 248.75 404.945312 248.75 Z M 404.945312 248.75 " fill-opacity="1" fill-rule="evenodd"/><path fill="#ffffff" d="M 486.539062 566.648438 C 486.539062 549.515625 465.289062 534.355469 433.847656 528.390625 C 426.25 545.171875 418.472656 562.003906 411.316406 578.960938 L 404.648438 594.769531 L 397.980469 578.960938 L 376.609375 528.28125 C 344.859375 534.167969 323.351562 549.410156 323.351562 566.648438 C 323.351562 589.246094 359.882812 607.554688 404.945312 607.554688 C 450.007812 607.554688 486.539062 589.234375 486.539062 566.648438 Z M 486.539062 566.648438 " fill-opacity="1" fill-rule="evenodd"/></svg>