<svg xmlns="http://www.w3.org/2000/svg" xmlns:xlink="http://www.w3.org/1999/xlink" width="1080" zoomAndPan="magnify" viewBox="0 0 810 809.999993" height="1080" preserveAspectRatio="xMidYMid meet" version="1.0"><path fill="#ffffff" d="M 405 81 C 226.316406 81 81 226.316406 81 405 C 81 583.683594 226.316406 729 405 729 C 583.683594 729 729 583.683594 729 405 C 729 226.316406 583.683594 81 405 81 Z M 405 706.273438 C 238.648438 706.273438 103.726562 571.351562 103.726562 405 C 103.726562 238.648438 238.648438 103.726562 405 103.726562 C 571.351562 103.726562 706.273438 238.648438 706.273438 405 C 706.273438 571.351562 571.351562 706.273438 405 706.273438 Z M 405 706.273438 " fill-opacity="1" fill-rule="nonzero"/><path fill="#ffffff" d="M 542.335938 521.867188 C 562.488281 497.6875 547.65625 483.582031 534.277344 473.425781 C 520.898438 463.273438 489.386719 450.296875 479.714844 461.902344 C 470.042969 473.507812 454.566406 488.015625 442.640625 484.871094 C 422.488281 479.550781 396.777344 452.390625 377.195312 432.804688 C 357.609375 413.222656 330.449219 387.511719 325.128906 367.359375 C 321.984375 355.433594 335.445312 340.84375 348.097656 330.285156 C 360.753906 319.726562 347.453125 290.230469 336.574219 275.722656 C 325.691406 261.214844 312.3125 247.511719 288.132812 267.664062 C 263.957031 287.8125 233.410156 341.410156 289.746094 423.132812 C 304.171875 444.089844 316.585938 456.179688 335.203125 474.796875 C 353.820312 493.414062 365.910156 505.828125 386.867188 520.253906 C 468.589844 576.589844 522.1875 546.042969 542.335938 521.867188 Z M 542.335938 521.867188 " fill-opacity="1" fill-rule="nonzero"/><path fill="#ffffff" d="M 474.636719 417.652344 C 473.933594 417.65625 473.238281 417.59375 472.546875 417.464844 C 471.855469 417.339844 471.183594 417.148438 470.53125 416.894531 C 469.875 416.644531 469.25 416.332031 468.652344 415.960938 C 468.054688 415.59375 467.5 415.171875 466.980469 414.699219 C 466.460938 414.222656 465.992188 413.707031 465.570312 413.144531 C 465.148438 412.585938 464.785156 411.988281 464.472656 411.359375 C 464.164062 410.730469 463.914062 410.078125 463.726562 409.402344 C 463.535156 408.722656 463.414062 408.035156 463.351562 407.335938 C 463.195312 405.582031 462.957031 403.832031 462.648438 402.097656 C 462.335938 400.359375 461.953125 398.640625 461.492188 396.9375 C 461.03125 395.234375 460.5 393.554688 459.890625 391.898438 C 459.285156 390.242188 458.609375 388.617188 457.863281 387.019531 C 457.113281 385.421875 456.296875 383.859375 455.414062 382.332031 C 454.53125 380.804688 453.582031 379.320312 452.570312 377.875 C 451.558594 376.429688 450.484375 375.03125 449.347656 373.683594 C 448.214844 372.332031 447.023438 371.03125 445.777344 369.785156 C 444.527344 368.539062 443.230469 367.347656 441.878906 366.210938 C 440.527344 365.078125 439.128906 364.003906 437.6875 362.992188 C 436.242188 361.980469 434.757812 361.03125 433.230469 360.148438 C 431.703125 359.261719 430.140625 358.449219 428.542969 357.699219 C 426.945312 356.953125 425.320312 356.273438 423.660156 355.667969 C 422.003906 355.0625 420.324219 354.53125 418.621094 354.070312 C 416.917969 353.609375 415.199219 353.222656 413.464844 352.914062 C 411.726562 352.601562 409.980469 352.367188 408.222656 352.207031 C 407.480469 352.144531 406.75 352.003906 406.035156 351.792969 C 405.316406 351.585938 404.628906 351.308594 403.96875 350.960938 C 403.304688 350.617188 402.683594 350.207031 402.101562 349.742188 C 401.519531 349.273438 400.992188 348.753906 400.511719 348.179688 C 400.03125 347.605469 399.613281 346.992188 399.257812 346.339844 C 398.898438 345.683594 398.605469 345 398.382812 344.289062 C 398.160156 343.574219 398.007812 342.847656 397.929688 342.105469 C 397.847656 341.363281 397.839844 340.621094 397.90625 339.878906 C 397.972656 339.132812 398.113281 338.402344 398.320312 337.6875 C 398.53125 336.972656 398.808594 336.28125 399.15625 335.621094 C 399.5 334.960938 399.90625 334.335938 400.375 333.757812 C 400.84375 333.175781 401.363281 332.644531 401.9375 332.164062 C 402.507812 331.6875 403.121094 331.269531 403.777344 330.910156 C 404.433594 330.550781 405.117188 330.261719 405.828125 330.039062 C 406.539062 329.8125 407.269531 329.664062 408.011719 329.582031 C 408.753906 329.503906 409.496094 329.496094 410.238281 329.5625 C 412.652344 329.78125 415.046875 330.105469 417.433594 330.535156 C 419.816406 330.964844 422.175781 331.496094 424.515625 332.128906 C 426.851562 332.761719 429.15625 333.496094 431.433594 334.328125 C 433.707031 335.160156 435.941406 336.089844 438.132812 337.117188 C 440.328125 338.144531 442.472656 339.265625 444.566406 340.480469 C 446.664062 341.691406 448.703125 342.996094 450.6875 344.386719 C 452.667969 345.777344 454.589844 347.25 456.445312 348.804688 C 458.300781 350.363281 460.082031 351.996094 461.796875 353.707031 C 463.511719 355.421875 465.148438 357.203125 466.707031 359.058594 C 468.265625 360.910156 469.742188 362.828125 471.132812 364.808594 C 472.523438 366.792969 473.828125 368.828125 475.042969 370.925781 C 476.261719 373.019531 477.382812 375.164062 478.414062 377.355469 C 479.441406 379.546875 480.375 381.78125 481.210938 384.054688 C 482.046875 386.328125 482.78125 388.632812 483.417969 390.96875 C 484.054688 393.304688 484.585938 395.664062 485.019531 398.050781 C 485.449219 400.433594 485.777344 402.832031 486 405.242188 C 486.066406 405.988281 486.058594 406.734375 485.980469 407.476562 C 485.902344 408.222656 485.75 408.953125 485.527344 409.667969 C 485.304688 410.382812 485.015625 411.066406 484.65625 411.726562 C 484.296875 412.382812 483.878906 413 483.402344 413.574219 C 482.921875 414.152344 482.394531 414.675781 481.8125 415.148438 C 481.230469 415.617188 480.609375 416.03125 479.945312 416.378906 C 479.285156 416.730469 478.59375 417.011719 477.878906 417.226562 C 477.160156 417.441406 476.429688 417.582031 475.683594 417.652344 Z M 474.636719 417.652344 " fill-opacity="1" fill-rule="nonzero"/><path fill="#ffffff" d="M 527.507812 418.296875 C 526.78125 418.300781 526.0625 418.230469 525.347656 418.09375 C 524.636719 417.957031 523.941406 417.753906 523.265625 417.480469 C 522.59375 417.210938 521.949219 416.878906 521.339844 416.488281 C 520.730469 416.09375 520.164062 415.644531 519.636719 415.144531 C 519.113281 414.640625 518.640625 414.09375 518.222656 413.5 C 517.800781 412.90625 517.441406 412.28125 517.144531 411.617188 C 516.84375 410.957031 516.609375 410.273438 516.441406 409.566406 C 516.273438 408.859375 516.175781 408.144531 516.144531 407.417969 C 516.058594 405.675781 515.9375 403.933594 515.773438 402.195312 C 515.609375 400.460938 515.40625 398.726562 515.160156 397 C 514.917969 395.269531 514.632812 393.546875 514.3125 391.832031 C 513.988281 390.117188 513.625 388.410156 513.226562 386.710938 C 512.824219 385.015625 512.382812 383.328125 511.902344 381.648438 C 511.421875 379.96875 510.90625 378.304688 510.347656 376.648438 C 509.792969 374.996094 509.199219 373.355469 508.566406 371.726562 C 507.933594 370.101562 507.265625 368.488281 506.558594 366.894531 C 505.851562 365.296875 505.109375 363.71875 504.332031 362.15625 C 503.550781 360.597656 502.738281 359.054688 501.886719 357.527344 C 501.039062 356.003906 500.152344 354.5 499.234375 353.015625 C 498.3125 351.535156 497.359375 350.074219 496.375 348.632812 C 495.386719 347.195312 494.367188 345.777344 493.316406 344.386719 C 492.261719 342.992188 491.179688 341.625 490.0625 340.28125 C 488.949219 338.941406 487.804688 337.625 486.628906 336.335938 C 485.449219 335.046875 484.246094 333.785156 483.011719 332.550781 C 481.777344 331.316406 480.515625 330.109375 479.226562 328.933594 C 477.9375 327.757812 476.621094 326.613281 475.277344 325.496094 C 473.9375 324.382812 472.566406 323.296875 471.175781 322.246094 C 469.785156 321.195312 468.367188 320.175781 466.929688 319.1875 C 465.488281 318.199219 464.027344 317.246094 462.542969 316.328125 C 461.0625 315.410156 459.558594 314.523438 458.03125 313.671875 C 456.507812 312.824219 454.964844 312.007812 453.402344 311.230469 C 451.84375 310.449219 450.261719 309.707031 448.667969 309 C 447.070312 308.296875 445.460938 307.625 443.832031 306.996094 C 442.207031 306.363281 440.566406 305.769531 438.910156 305.210938 C 437.257812 304.65625 435.589844 304.136719 433.914062 303.660156 C 432.234375 303.179688 430.546875 302.738281 428.847656 302.335938 C 427.148438 301.933594 425.441406 301.574219 423.726562 301.25 C 422.011719 300.925781 420.292969 300.644531 418.5625 300.398438 C 416.835938 300.15625 415.101562 299.953125 413.363281 299.789062 C 411.628906 299.625 409.886719 299.5 408.144531 299.417969 C 407.398438 299.382812 406.660156 299.277344 405.9375 299.097656 C 405.210938 298.917969 404.511719 298.667969 403.835938 298.351562 C 403.15625 298.035156 402.519531 297.65625 401.917969 297.210938 C 401.316406 296.769531 400.765625 296.269531 400.261719 295.71875 C 399.757812 295.167969 399.3125 294.570312 398.925781 293.933594 C 398.542969 293.292969 398.222656 292.621094 397.96875 291.917969 C 397.714844 291.214844 397.53125 290.496094 397.417969 289.757812 C 397.308594 289.019531 397.269531 288.277344 397.304688 287.53125 C 397.335938 286.785156 397.445312 286.046875 397.625 285.324219 C 397.804688 284.597656 398.050781 283.898438 398.367188 283.222656 C 398.6875 282.542969 399.066406 281.90625 399.507812 281.304688 C 399.953125 280.703125 400.449219 280.152344 401 279.648438 C 401.554688 279.144531 402.148438 278.699219 402.789062 278.3125 C 403.429688 277.929688 404.101562 277.609375 404.800781 277.355469 C 405.503906 277.101562 406.226562 276.917969 406.964844 276.804688 C 407.703125 276.695312 408.445312 276.65625 409.191406 276.691406 C 411.285156 276.792969 413.375 276.941406 415.460938 277.136719 C 417.546875 277.335938 419.625 277.582031 421.699219 277.875 C 423.773438 278.167969 425.839844 278.511719 427.898438 278.898438 C 429.960938 279.289062 432.007812 279.722656 434.046875 280.207031 C 436.085938 280.691406 438.113281 281.21875 440.125 281.796875 C 442.140625 282.371094 444.140625 282.996094 446.125 283.664062 C 448.113281 284.332031 450.082031 285.046875 452.035156 285.804688 C 453.988281 286.566406 455.921875 287.371094 457.835938 288.21875 C 459.753906 289.066406 461.648438 289.957031 463.523438 290.894531 C 465.398438 291.832031 467.25 292.808594 469.078125 293.828125 C 470.910156 294.851562 472.714844 295.914062 474.496094 297.019531 C 476.277344 298.121094 478.03125 299.265625 479.757812 300.453125 C 481.484375 301.636719 483.1875 302.863281 484.855469 304.125 C 486.527344 305.386719 488.171875 306.691406 489.78125 308.027344 C 491.394531 309.367188 492.972656 310.742188 494.523438 312.15625 C 496.070312 313.566406 497.585938 315.011719 499.066406 316.496094 C 500.546875 317.976562 501.996094 319.492188 503.40625 321.039062 C 504.816406 322.585938 506.195312 324.167969 507.53125 325.78125 C 508.871094 327.390625 510.171875 329.03125 511.4375 330.703125 C 512.699219 332.375 513.925781 334.074219 515.109375 335.804688 C 516.292969 337.53125 517.4375 339.285156 518.542969 341.066406 C 519.648438 342.847656 520.710938 344.652344 521.730469 346.480469 C 522.753906 348.3125 523.730469 350.164062 524.667969 352.039062 C 525.601562 353.914062 526.496094 355.808594 527.34375 357.722656 C 528.191406 359.640625 528.996094 361.574219 529.753906 363.527344 C 530.515625 365.480469 531.226562 367.449219 531.898438 369.433594 C 532.566406 371.421875 533.1875 373.421875 533.765625 375.433594 C 534.339844 377.449219 534.871094 379.476562 535.355469 381.515625 C 535.835938 383.554688 536.273438 385.601562 536.664062 387.660156 C 537.050781 389.71875 537.390625 391.785156 537.6875 393.859375 C 537.980469 395.9375 538.226562 398.015625 538.421875 400.101562 C 538.621094 402.1875 538.769531 404.277344 538.871094 406.371094 C 538.902344 407.117188 538.863281 407.859375 538.75 408.597656 C 538.636719 409.335938 538.449219 410.054688 538.195312 410.757812 C 537.9375 411.460938 537.617188 412.128906 537.226562 412.765625 C 536.839844 413.40625 536.394531 414 535.886719 414.550781 C 535.382812 415.101562 534.828125 415.597656 534.226562 416.035156 C 533.621094 416.476562 532.980469 416.855469 532.304688 417.171875 C 531.628906 417.484375 530.925781 417.730469 530.199219 417.90625 C 529.472656 418.082031 528.738281 418.1875 527.992188 418.21875 Z M 527.507812 418.296875 " fill-opacity="1" fill-rule="nonzero"/></svg>