<svg xmlns="http://www.w3.org/2000/svg" xmlns:xlink="http://www.w3.org/1999/xlink" width="1080" zoomAndPan="magnify" viewBox="0 0 810 809.999993" height="1080" preserveAspectRatio="xMidYMid meet" version="1.0"><path fill="#ffffff" d="M 596.339844 81 L 213.660156 81 C 140.511719 81 81 140.511719 81 213.660156 L 81 596.339844 C 81 669.488281 140.511719 729 213.660156 729 L 596.339844 729 C 669.488281 729 729 669.488281 729 596.339844 L 729 213.660156 C 729 140.511719 669.488281 81 596.339844 81 Z M 690.882812 596.339844 C 690.882812 648.46875 648.46875 690.882812 596.339844 690.882812 L 213.660156 690.882812 C 161.53125 690.882812 119.117188 648.46875 119.117188 596.339844 L 119.117188 213.660156 C 119.117188 161.53125 161.53125 119.117188 213.660156 119.117188 L 596.339844 119.117188 C 648.46875 119.117188 690.882812 161.53125 690.882812 213.660156 Z M 690.882812 596.339844 " fill-opacity="1" fill-rule="nonzero"/><path fill="#ffffff" d="M 277.941406 338.453125 L 201.707031 338.453125 C 191.179688 338.453125 182.648438 346.984375 182.648438 357.511719 L 182.648438 605.910156 C 182.648438 616.4375 191.179688 624.96875 201.707031 624.96875 L 277.941406 624.96875 C 288.464844 624.96875 297 616.4375 297 605.910156 L 297 357.511719 C 297 346.984375 288.464844 338.453125 277.941406 338.453125 Z M 258.882812 586.851562 L 220.765625 586.851562 L 220.765625 376.570312 L 258.882812 376.570312 Z M 258.882812 586.851562 " fill-opacity="1" fill-rule="nonzero"/><path fill="#ffffff" d="M 449.46875 372.417969 L 449.46875 357.511719 C 449.46875 346.984375 440.9375 338.453125 430.410156 338.453125 L 354.175781 338.453125 C 343.652344 338.453125 335.117188 346.984375 335.117188 357.511719 L 335.117188 605.910156 C 335.117188 616.4375 343.652344 624.96875 354.175781 624.96875 L 430.410156 624.96875 C 440.9375 624.96875 449.46875 616.4375 449.46875 605.910156 L 449.46875 515.066406 C 449.46875 497.550781 463.71875 483.300781 481.234375 483.300781 C 498.75 483.300781 513 497.550781 513 515.066406 L 513 605.910156 C 513 616.4375 521.535156 624.96875 532.058594 624.96875 L 608.292969 624.96875 C 618.820312 624.96875 627.351562 616.4375 627.351562 605.910156 L 627.351562 515.066406 C 627.351562 421.980469 540.808594 352.058594 449.46875 372.417969 Z M 589.234375 586.851562 L 551.117188 586.851562 L 551.117188 515.066406 C 551.117188 476.53125 519.769531 445.183594 481.234375 445.183594 C 442.703125 445.183594 411.351562 476.53125 411.351562 515.066406 L 411.351562 586.851562 L 373.234375 586.851562 L 373.234375 376.570312 L 411.351562 376.570312 L 411.351562 398.625 C 411.351562 412.363281 425.476562 421.585938 438.0625 416.082031 C 508.726562 385.117188 589.234375 436.9375 589.234375 515.066406 Z M 589.234375 586.851562 " fill-opacity="1" fill-rule="nonzero"/><path fill="#ffffff" d="M 239.824219 185.03125 C 208.296875 185.03125 182.648438 210.679688 182.648438 242.207031 C 182.648438 273.734375 208.296875 299.382812 239.824219 299.382812 C 271.351562 299.382812 297 273.734375 297 242.207031 C 297 210.679688 271.351562 185.03125 239.824219 185.03125 Z M 239.824219 261.265625 C 229.316406 261.265625 220.765625 252.714844 220.765625 242.207031 C 220.765625 231.695312 229.316406 223.148438 239.824219 223.148438 C 250.332031 223.148438 258.882812 231.695312 258.882812 242.207031 C 258.882812 252.714844 250.332031 261.265625 239.824219 261.265625 Z M 239.824219 261.265625 " fill-opacity="1" fill-rule="nonzero"/></svg>