<svg xmlns="http://www.w3.org/2000/svg" xmlns:xlink="http://www.w3.org/1999/xlink" width="1080" zoomAndPan="magnify" viewBox="0 0 810 809.999993" height="1080" preserveAspectRatio="xMidYMid meet" version="1.0"><defs><clipPath id="91ac8c9d04"><path d="M 81 81 L 729 81 L 729 729 L 81 729 Z M 81 81 " clip-rule="nonzero"/></clipPath></defs><g clip-path="url(#91ac8c9d04)"><path fill="#ffffff" d="M 404.859375 107.058594 C 240.496094 107.058594 106.785156 240.777344 106.785156 405.132812 C 106.785156 569.496094 240.496094 703.207031 404.859375 703.207031 C 569.222656 703.207031 702.933594 569.496094 702.933594 405.132812 C 702.933594 240.769531 569.222656 107.058594 404.859375 107.058594 Z M 404.859375 729.132812 C 226.207031 729.132812 80.859375 583.789062 80.859375 405.132812 C 80.859375 226.480469 226.207031 81.132812 404.859375 81.132812 C 583.515625 81.128906 728.859375 226.480469 728.859375 405.132812 C 728.859375 583.789062 583.515625 729.132812 404.859375 729.132812 " fill-opacity="1" fill-rule="nonzero"/></g><path fill="#ffffff" d="M 224.695312 509.570312 L 584.996094 509.570312 L 584.996094 300.710938 L 224.695312 300.710938 Z M 597.972656 535.496094 L 211.746094 535.496094 C 204.585938 535.496094 198.796875 529.707031 198.796875 522.546875 L 198.796875 287.734375 C 198.796875 280.574219 204.585938 274.785156 211.746094 274.785156 L 597.972656 274.785156 C 605.132812 274.785156 610.921875 280.574219 610.921875 287.734375 L 610.921875 522.546875 C 610.921875 529.707031 605.132812 535.496094 597.972656 535.496094 " fill-opacity="1" fill-rule="nonzero"/><path fill="#ffffff" d="M 404.859375 442.167969 C 402.175781 442.167969 399.492188 441.328125 397.195312 439.652344 L 204.082031 298.191406 C 198.292969 293.96875 197.0625 285.859375 201.285156 280.097656 C 205.511719 274.308594 213.621094 273.050781 219.410156 277.300781 L 404.859375 413.136719 L 590.3125 277.300781 C 596.101562 273.050781 604.210938 274.308594 608.433594 280.097656 C 612.65625 285.859375 611.425781 293.96875 605.636719 298.191406 L 412.523438 439.652344 C 410.230469 441.328125 407.546875 442.167969 404.859375 442.167969 " fill-opacity="1" fill-rule="nonzero"/></svg>