<svg xmlns="http://www.w3.org/2000/svg" xmlns:xlink="http://www.w3.org/1999/xlink" width="1080" zoomAndPan="magnify" viewBox="0 0 810 809.999993" height="1080" preserveAspectRatio="xMidYMid meet" version="1.0"><defs><clipPath id="5f68579ac3"><path d="M 81 562 L 729 562 L 729 617.96875 L 81 617.96875 Z M 81 562 " clip-rule="nonzero"/></clipPath></defs><path fill="#ffffff" d="M 728.984375 219.867188 C 728.984375 235.203125 716.550781 247.636719 701.214844 247.636719 L 108.785156 247.636719 C 93.445312 247.636719 81.015625 235.203125 81.015625 219.867188 C 81.015625 204.53125 93.445312 192.097656 108.785156 192.097656 L 701.214844 192.097656 C 716.550781 192.097656 728.984375 204.53125 728.984375 219.867188 Z M 728.984375 219.867188 " fill-opacity="1" fill-rule="evenodd"/><path fill="#ffffff" d="M 728.984375 405.003906 C 728.984375 420.339844 716.550781 432.773438 701.214844 432.773438 L 108.785156 432.773438 C 93.445312 432.773438 81.015625 420.339844 81.015625 405.003906 C 81.015625 389.667969 93.445312 377.234375 108.785156 377.234375 L 701.214844 377.234375 C 716.550781 377.234375 728.984375 389.667969 728.984375 405.003906 Z M 728.984375 405.003906 " fill-opacity="1" fill-rule="evenodd"/><g clip-path="url(#5f68579ac3)"><path fill="#ffffff" d="M 728.984375 590.140625 C 728.984375 605.476562 716.550781 617.910156 701.214844 617.910156 L 108.785156 617.910156 C 93.445312 617.910156 81.015625 605.476562 81.015625 590.140625 C 81.015625 574.800781 93.445312 562.371094 108.785156 562.371094 L 701.214844 562.371094 C 716.550781 562.371094 728.984375 574.800781 728.984375 590.140625 Z M 728.984375 590.140625 " fill-opacity="1" fill-rule="evenodd"/></g></svg>