<svg xmlns="http://www.w3.org/2000/svg" xmlns:xlink="http://www.w3.org/1999/xlink" width="1080" zoomAndPan="magnify" viewBox="0 0 810 809.999993" height="1080" preserveAspectRatio="xMidYMid meet" version="1.0"><defs><g/><clipPath id="e20ce3a1eb"><path d="M 228 258 L 726.75 258 L 726.75 628.496094 L 228 628.496094 Z M 228 258 " clip-rule="nonzero"/></clipPath><clipPath id="95232b78b7"><path d="M 81 181.496094 L 580 181.496094 L 580 552 L 81 552 Z M 81 181.496094 " clip-rule="nonzero"/></clipPath></defs><g clip-path="url(#e20ce3a1eb)"><path fill="#0b0a14" d="M 661.46875 419.691406 C 661.457031 420.074219 661.457031 420.464844 661.441406 420.847656 L 661.363281 421.992188 C 661.253906 423.53125 661.144531 425.0625 661.035156 426.59375 C 660.6875 429.632812 660.386719 432.691406 659.816406 435.6875 C 659.359375 438.710938 658.640625 441.671875 657.980469 444.628906 C 657.582031 446.097656 657.183594 447.558594 656.789062 449.015625 L 656.488281 450.109375 C 656.382812 450.472656 656.261719 450.828125 656.144531 451.1875 L 655.445312 453.339844 L 654.742188 455.484375 C 654.511719 456.203125 654.226562 456.894531 653.964844 457.601562 C 653.429688 459.003906 652.914062 460.414062 652.351562 461.796875 C 651.75 463.171875 651.152344 464.539062 650.558594 465.90625 L 650.105469 466.933594 L 649.613281 467.933594 L 648.632812 469.929688 L 647.636719 471.925781 C 647.308594 472.582031 646.929688 473.21875 646.578125 473.871094 C 645.859375 475.160156 645.15625 476.464844 644.410156 477.738281 C 643.640625 478.988281 642.859375 480.234375 642.089844 481.480469 L 641.507812 482.417969 L 640.890625 483.320312 L 639.652344 485.128906 L 638.40625 486.925781 C 638.007812 487.539062 637.539062 488.101562 637.109375 488.679688 C 636.226562 489.835938 635.347656 490.988281 634.472656 492.136719 C 632.605469 494.351562 630.8125 496.601562 628.828125 498.671875 C 628.34375 499.195312 627.855469 499.71875 627.367188 500.25 L 626.640625 501.03125 L 625.882812 501.789062 C 624.871094 502.78125 623.855469 503.777344 622.839844 504.773438 C 622.34375 505.277344 621.808594 505.734375 621.285156 506.210938 C 620.753906 506.679688 620.230469 507.152344 619.703125 507.621094 C 619.179688 508.089844 618.652344 508.558594 618.128906 509.023438 C 617.605469 509.492188 617.042969 509.917969 616.5 510.367188 C 615.410156 511.246094 614.328125 512.125 613.242188 513 C 612.128906 513.832031 611.003906 514.644531 609.886719 515.460938 C 609.328125 515.867188 608.765625 516.277344 608.210938 516.6875 C 607.636719 517.0625 607.054688 517.441406 606.488281 517.820312 C 605.332031 518.578125 604.183594 519.332031 603.042969 520.078125 C 601.871094 520.773438 600.695312 521.46875 599.53125 522.15625 C 598.941406 522.5 598.359375 522.839844 597.777344 523.183594 C 597.175781 523.503906 596.578125 523.816406 595.984375 524.128906 C 594.785156 524.753906 593.597656 525.378906 592.414062 525.996094 C 591.199219 526.5625 589.996094 527.125 588.792969 527.6875 C 588.183594 527.960938 587.585938 528.242188 586.984375 528.515625 C 586.386719 528.796875 585.765625 529.019531 585.152344 529.273438 C 583.933594 529.765625 582.71875 530.257812 581.507812 530.742188 C 580.90625 530.996094 580.289062 531.207031 579.671875 531.417969 C 579.148438 531.605469 578.625 531.78125 578.101562 531.964844 L 578.515625 531.882812 C 578.496094 531.890625 579.421875 531.707031 579.121094 531.761719 L 579.691406 531.628906 C 580.6875 531.386719 581.699219 531.144531 582.71875 530.902344 C 583.222656 530.777344 583.734375 530.660156 584.242188 530.53125 C 584.863281 530.359375 585.488281 530.1875 586.109375 530.007812 C 587.359375 529.652344 588.613281 529.285156 589.867188 528.929688 C 590.515625 528.75 591.082031 528.546875 591.664062 528.351562 C 592.253906 528.144531 592.835938 527.941406 593.417969 527.746094 C 594.007812 527.539062 594.59375 527.335938 595.179688 527.132812 C 595.765625 526.925781 596.355469 526.730469 596.933594 526.488281 C 598.097656 526.023438 599.257812 525.550781 600.421875 525.078125 C 601.011719 524.835938 601.597656 524.617188 602.175781 524.355469 C 602.75 524.089844 603.324219 523.828125 603.898438 523.558594 C 605.054688 523.023438 606.207031 522.488281 607.367188 521.949219 C 608.503906 521.355469 609.636719 520.753906 610.78125 520.160156 C 611.355469 519.855469 611.921875 519.554688 612.496094 519.253906 C 613.054688 518.929688 613.613281 518.597656 614.171875 518.273438 C 615.296875 517.609375 616.414062 516.949219 617.539062 516.28125 C 618.632812 515.570312 619.726562 514.847656 620.832031 514.128906 C 621.378906 513.761719 621.929688 513.398438 622.484375 513.035156 C 623.015625 512.648438 623.550781 512.257812 624.085938 511.871094 C 625.15625 511.085938 626.234375 510.308594 627.300781 509.503906 C 628.332031 508.667969 629.375 507.832031 630.417969 506.984375 C 630.933594 506.554688 631.46875 506.15625 631.972656 505.710938 C 632.472656 505.253906 632.972656 504.808594 633.480469 504.363281 C 633.984375 503.917969 634.488281 503.464844 634.988281 503.019531 C 635.496094 502.558594 636.003906 502.117188 636.480469 501.640625 C 637.445312 500.6875 638.421875 499.734375 639.390625 498.777344 L 640.121094 498.0625 L 640.816406 497.308594 C 641.277344 496.804688 641.742188 496.300781 642.210938 495.804688 C 644.105469 493.820312 645.828125 491.664062 647.613281 489.554688 C 648.449219 488.453125 649.289062 487.347656 650.132812 486.246094 C 650.546875 485.683594 650.988281 485.148438 651.375 484.566406 L 652.5625 482.84375 L 653.746094 481.117188 L 654.339844 480.246094 L 654.894531 479.355469 C 655.636719 478.164062 656.375 476.964844 657.113281 475.765625 C 657.835938 474.554688 658.496094 473.308594 659.191406 472.074219 C 659.53125 471.453125 659.890625 470.839844 660.210938 470.210938 L 661.152344 468.304688 L 662.09375 466.390625 L 662.570312 465.433594 L 663.003906 464.449219 C 663.570312 463.144531 664.136719 461.835938 664.710938 460.523438 C 665.25 459.195312 665.746094 457.851562 666.261719 456.503906 C 666.503906 455.835938 666.785156 455.171875 667.003906 454.484375 L 667.675781 452.429688 L 668.347656 450.371094 C 668.457031 450.027344 668.570312 449.6875 668.671875 449.335938 L 668.957031 448.289062 C 669.339844 446.898438 669.714844 445.496094 670.101562 444.097656 C 670.734375 441.261719 671.421875 438.429688 671.859375 435.542969 C 672.402344 432.671875 672.6875 429.757812 673.027344 426.839844 C 673.128906 425.375 673.230469 423.914062 673.332031 422.441406 L 673.410156 421.34375 C 673.429688 420.976562 673.429688 420.601562 673.441406 420.238281 L 673.484375 418.027344 L 673.527344 415.820312 C 673.539062 415.082031 673.492188 414.339844 673.480469 413.609375 C 673.421875 412.128906 673.410156 410.648438 673.320312 409.175781 C 673.199219 407.699219 673.078125 406.230469 672.964844 404.75 C 672.933594 404.378906 672.90625 404.007812 672.867188 403.644531 L 672.722656 402.542969 L 672.433594 400.335938 L 672.136719 398.132812 C 672.03125 397.402344 671.878906 396.675781 671.75 395.941406 L 671.351562 393.753906 L 671.144531 392.65625 L 671.042969 392.109375 C 671.078125 392.28125 670.933594 391.570312 670.929688 391.558594 L 670.871094 391.316406 C 670.558594 390.019531 670.246094 388.714844 669.933594 387.414062 L 669.699219 386.433594 L 669.378906 385.304688 L 668.734375 383.042969 L 668.078125 380.792969 C 667.855469 380.054688 667.59375 379.371094 667.355469 378.65625 L 666.625 376.539062 C 666.25 375.519531 665.96875 374.472656 665.394531 373.519531 C 665.121094 372.871094 664.851562 372.242188 664.578125 371.59375 C 664.324219 370.398438 663.765625 369.328125 663.269531 368.230469 L 662.324219 366.195312 C 662.003906 365.511719 661.703125 364.832031 661.367188 364.160156 L 660.324219 362.171875 L 659.277344 360.1875 C 659.097656 359.855469 658.933594 359.519531 658.742188 359.199219 L 658.175781 358.230469 C 657.410156 356.941406 656.640625 355.652344 655.878906 354.363281 C 655.054688 353.113281 654.234375 351.867188 653.402344 350.609375 C 650.011719 345.671875 646.253906 340.992188 642.164062 336.621094 C 638.050781 332.273438 633.601562 328.269531 628.894531 324.613281 L 627.113281 323.261719 C 626.515625 322.816406 625.941406 322.339844 625.316406 321.933594 L 621.636719 319.410156 C 619.121094 317.820312 616.609375 316.226562 613.988281 314.835938 L 612.042969 313.757812 C 611.386719 313.417969 610.71875 313.101562 610.058594 312.769531 L 608.0625 311.789062 L 607.070312 311.292969 L 606.054688 310.847656 L 601.984375 309.089844 L 597.851562 307.519531 C 595.492188 306.679688 593.113281 305.914062 590.71875 305.222656 L 591.039062 305.367188 L 592.097656 305.832031 L 593.140625 306.339844 L 595.226562 307.367188 C 595.914062 307.710938 596.617188 308.042969 597.304688 308.398438 L 599.332031 309.523438 C 602.074219 310.984375 604.695312 312.648438 607.324219 314.308594 L 611.171875 316.949219 C 611.820312 317.375 612.425781 317.863281 613.050781 318.332031 L 614.914062 319.742188 C 619.832031 323.566406 624.488281 327.75 628.785156 332.300781 C 633.050781 336.867188 636.980469 341.757812 640.53125 346.914062 C 641.394531 348.226562 642.253906 349.535156 643.117188 350.84375 C 643.917969 352.191406 644.714844 353.535156 645.511719 354.882812 L 646.113281 355.898438 C 646.304688 356.226562 646.480469 356.585938 646.667969 356.921875 L 647.757812 359 L 648.847656 361.082031 C 649.207031 361.78125 649.519531 362.496094 649.851562 363.203125 L 650.839844 365.332031 C 651.363281 366.476562 651.941406 367.597656 652.203125 368.847656 C 652.492188 369.523438 652.773438 370.1875 653.058594 370.863281 C 653.664062 371.859375 653.957031 372.957031 654.339844 374.019531 L 655.113281 376.234375 C 655.359375 376.980469 655.628906 377.6875 655.863281 378.464844 L 656.546875 380.820312 L 657.222656 383.179688 L 657.5625 384.359375 L 657.804688 385.378906 C 658.136719 386.742188 658.460938 388.105469 658.785156 389.460938 L 658.847656 389.714844 C 658.855469 389.730469 659.003906 390.46875 658.964844 390.296875 L 659.074219 390.863281 L 659.28125 392.011719 L 659.703125 394.296875 C 659.839844 395.0625 659.996094 395.820312 660.105469 396.585938 L 660.417969 398.894531 L 660.71875 401.195312 L 660.871094 402.34375 C 660.910156 402.734375 660.933594 403.117188 660.972656 403.503906 C 661.09375 405.046875 661.222656 406.59375 661.34375 408.128906 C 661.433594 409.671875 661.457031 411.214844 661.511719 412.761719 C 661.527344 413.53125 661.570312 414.304688 661.558594 415.074219 L 661.515625 417.382812 Z M 516.582031 570.652344 C 516.472656 572.425781 515.007812 573.8125 513.230469 573.800781 C 506.328125 573.746094 498.953125 572.84375 491.441406 570.972656 C 486.386719 569.722656 481.601562 568.117188 477.136719 566.226562 C 472.425781 574.035156 463.308594 578.792969 453.4375 577.234375 C 442.394531 575.492188 434.046875 565.914062 433.8125 554.742188 C 433.519531 540.675781 445.464844 529.691406 459.296875 530.957031 C 471.152344 532.042969 480.429688 542.144531 480.484375 554.058594 C 480.488281 556.21875 480.210938 558.304688 479.675781 560.289062 C 483.761719 562.140625 488.21875 563.703125 492.953125 564.875 C 499.980469 566.617188 506.847656 567.324219 513.164062 567.128906 C 515.121094 567.0625 516.695312 568.703125 516.582031 570.652344 Z M 726.359375 421.011719 C 726.28125 418.882812 726.257812 416.75 726.128906 414.628906 C 725.957031 412.503906 725.78125 410.382812 725.609375 408.25 C 725.566406 407.722656 725.527344 407.191406 725.480469 406.664062 L 725.265625 405.074219 L 724.855469 401.898438 L 724.425781 398.722656 C 724.273438 397.664062 724.058594 396.617188 723.871094 395.566406 L 723.289062 392.410156 L 722.996094 390.832031 L 722.851562 390.046875 C 722.902344 390.292969 722.695312 389.269531 722.683594 389.25 L 722.601562 388.902344 C 722.15625 387.027344 721.703125 385.148438 721.25 383.277344 L 720.914062 381.859375 L 720.453125 380.238281 L 719.523438 376.984375 L 718.578125 373.738281 C 718.25 372.667969 717.882812 371.695312 717.535156 370.667969 L 716.476562 367.617188 C 715.941406 366.144531 715.542969 364.632812 714.710938 363.261719 C 714.316406 362.332031 713.925781 361.421875 713.535156 360.480469 C 713.167969 358.765625 712.371094 357.214844 711.648438 355.640625 L 710.289062 352.707031 C 709.828125 351.730469 709.394531 350.742188 708.910156 349.78125 L 707.40625 346.914062 L 705.898438 344.054688 C 705.644531 343.574219 705.402344 343.089844 705.132812 342.621094 L 704.308594 341.234375 C 703.207031 339.375 702.109375 337.519531 701.007812 335.664062 C 699.820312 333.859375 698.628906 332.0625 697.441406 330.257812 C 692.550781 323.144531 687.128906 316.398438 681.25 310.105469 C 675.324219 303.839844 668.902344 298.070312 662.128906 292.792969 L 659.5625 290.847656 C 658.703125 290.210938 657.867188 289.535156 656.976562 288.941406 L 651.667969 285.304688 C 648.046875 283.015625 644.429688 280.722656 640.65625 278.710938 L 637.855469 277.160156 C 636.902344 276.671875 635.941406 276.210938 634.988281 275.734375 L 632.121094 274.324219 L 630.683594 273.617188 L 629.21875 272.976562 L 623.363281 270.433594 L 617.402344 268.175781 C 609.410156 265.3125 601.234375 263.0625 592.972656 261.421875 C 584.703125 259.855469 576.355469 258.949219 568.03125 258.621094 C 565.949219 258.582031 563.871094 258.546875 561.800781 258.507812 C 559.71875 258.539062 557.65625 258.621094 555.582031 258.6875 C 553.515625 258.710938 551.460938 258.914062 549.402344 259.082031 C 547.347656 259.257812 545.292969 259.375 543.265625 259.6875 C 541.230469 259.953125 539.195312 260.230469 537.167969 260.496094 C 535.160156 260.867188 533.148438 261.238281 531.148438 261.609375 L 529.648438 261.886719 L 528.71875 262.066406 L 528.023438 262.226562 L 525.242188 262.875 L 523.839844 263.203125 L 522.308594 263.609375 L 519.246094 264.425781 C 503.527344 268.898438 488.984375 275.9375 476.070312 284.410156 C 463.117188 292.84375 451.628906 302.488281 441.0625 312.339844 C 430.480469 322.203125 420.761719 332.273438 411.417969 342.085938 C 402.085938 351.910156 393.132812 361.488281 384.339844 370.589844 C 375.550781 379.691406 366.929688 388.320312 358.417969 396.351562 C 341.414062 412.425781 324.796875 426.042969 309.265625 437.046875 C 293.746094 448.074219 279.421875 456.574219 267.304688 462.976562 C 255.195312 469.40625 245.339844 473.832031 238.570312 476.714844 C 235.195312 478.195312 232.566406 479.214844 230.808594 479.945312 C 229.042969 480.65625 228.132812 481.027344 228.132812 481.027344 C 228.132812 481.027344 229.0625 480.707031 230.863281 480.097656 C 232.660156 479.46875 235.347656 478.597656 238.800781 477.304688 C 245.734375 474.796875 255.847656 470.917969 268.378906 465.144531 C 280.914062 459.394531 295.832031 451.632812 312.152344 441.363281 C 328.484375 431.121094 346.128906 418.246094 364.265625 402.914062 C 373.351562 395.257812 382.5625 387.011719 391.929688 378.347656 C 401.296875 369.671875 410.8125 360.570312 420.621094 351.34375 C 430.429688 342.128906 440.539062 332.777344 451.226562 323.878906 C 461.902344 314.980469 473.210938 306.5625 485.375 299.585938 C 486.886719 298.6875 488.4375 297.882812 489.972656 297.035156 C 491.519531 296.207031 493.085938 295.441406 494.648438 294.636719 C 497.804688 293.125 500.988281 291.660156 504.242188 290.378906 C 510.726562 287.773438 517.433594 285.632812 524.253906 284.113281 L 526.722656 283.605469 L 527.957031 283.34375 L 529.347656 283.09375 L 532.160156 282.609375 L 532.863281 282.480469 C 532.613281 282.53125 532.984375 282.476562 533.011719 282.476562 L 533.34375 282.429688 L 534.667969 282.261719 C 536.429688 282.042969 538.191406 281.816406 539.957031 281.589844 C 541.726562 281.453125 543.5 281.320312 545.273438 281.1875 C 547.046875 281 548.832031 281.019531 550.613281 280.964844 C 552.394531 280.917969 554.171875 280.835938 555.957031 280.917969 C 557.746094 280.976562 559.523438 280.996094 561.308594 281.066406 C 563.089844 281.199219 564.867188 281.335938 566.644531 281.464844 C 573.757812 282.15625 580.832031 283.324219 587.78125 285.046875 C 594.714844 286.84375 601.519531 289.140625 608.121094 291.925781 L 613.027344 294.105469 L 617.828125 296.527344 L 619.027344 297.125 L 620.195312 297.792969 L 622.535156 299.113281 C 623.304688 299.554688 624.097656 299.980469 624.863281 300.441406 L 627.132812 301.871094 C 630.203125 303.71875 633.105469 305.816406 636.011719 307.882812 L 640.25 311.15625 C 640.972656 311.6875 641.625 312.296875 642.3125 312.863281 L 644.347656 314.601562 C 649.710938 319.285156 654.734375 324.34375 659.308594 329.753906 C 663.835938 335.199219 667.945312 340.957031 671.601562 346.953125 L 674.242188 351.503906 L 676.65625 356.164062 L 677.261719 357.324219 C 677.460938 357.710938 677.625 358.113281 677.808594 358.511719 L 678.894531 360.898438 L 679.980469 363.269531 C 680.328125 364.066406 680.628906 364.886719 680.953125 365.691406 L 681.917969 368.109375 C 682.238281 368.945312 682.601562 369.753906 682.855469 370.609375 C 683.359375 372.101562 683.855469 373.59375 684.355469 375.078125 C 684.757812 376.003906 684.960938 376.992188 685.246094 377.949219 L 685.953125 380.4375 C 686.183594 381.261719 686.457031 382.117188 686.644531 382.914062 L 687.179688 385.273438 L 687.726562 387.625 L 688.011719 388.804688 L 688.4375 391.152344 C 688.835938 393.746094 689.488281 397.988281 689.882812 400.582031 C 689.890625 400.601562 689.890625 400.617188 689.890625 400.636719 C 689.992188 401.476562 690.125 402.320312 690.199219 403.167969 L 690.386719 405.714844 L 690.578125 408.25 L 690.675781 409.511719 C 690.691406 409.933594 690.691406 410.363281 690.707031 410.78125 C 690.75 412.472656 690.789062 414.15625 690.835938 415.839844 C 690.835938 417.523438 690.75 419.199219 690.71875 420.871094 C 690.6875 421.714844 690.707031 422.550781 690.636719 423.378906 L 690.445312 425.878906 L 690.253906 428.371094 C 690.222656 428.789062 690.199219 429.199219 690.15625 429.617188 L 689.996094 430.847656 C 689.789062 432.5 689.578125 434.140625 689.371094 435.777344 C 688.78125 439.035156 688.300781 442.289062 687.5 445.472656 C 686.839844 448.679688 685.859375 451.796875 684.996094 454.921875 C 684.480469 456.460938 683.964844 457.996094 683.457031 459.527344 L 683.070312 460.675781 C 682.9375 461.050781 682.777344 461.429688 682.636719 461.796875 L 681.757812 464.050781 L 680.890625 466.289062 C 680.601562 467.042969 680.238281 467.753906 679.929688 468.488281 C 679.265625 469.949219 678.644531 471.417969 677.964844 472.851562 C 677.25 474.265625 676.53125 475.679688 675.816406 477.089844 L 675.285156 478.148438 L 674.699219 479.175781 L 673.53125 481.230469 L 672.371094 483.277344 C 671.980469 483.960938 671.542969 484.605469 671.125 485.269531 C 670.277344 486.589844 669.480469 487.921875 668.613281 489.210938 C 667.726562 490.484375 666.832031 491.746094 665.949219 493.019531 L 665.285156 493.960938 L 664.578125 494.875 L 663.167969 496.699219 L 661.765625 498.515625 C 661.25 499.203125 660.644531 499.816406 660.113281 500.492188 C 659.179688 501.570312 658.257812 502.648438 657.332031 503.730469 C 655.234375 505.914062 653.257812 508.179688 651.054688 510.195312 L 649.453125 511.746094 L 648.652344 512.519531 L 647.816406 513.253906 C 646.707031 514.230469 645.597656 515.199219 644.496094 516.167969 C 643.957031 516.664062 643.367188 517.105469 642.789062 517.566406 C 642.222656 518.019531 641.648438 518.472656 641.074219 518.921875 C 640.507812 519.375 639.941406 519.828125 639.371094 520.285156 C 638.8125 520.742188 638.199219 521.136719 637.617188 521.5625 C 636.445312 522.40625 635.277344 523.246094 634.109375 524.082031 C 632.914062 524.867188 631.710938 525.640625 630.519531 526.410156 C 629.921875 526.800781 629.328125 527.1875 628.734375 527.574219 C 628.121094 527.929688 627.507812 528.28125 626.898438 528.632812 C 625.679688 529.339844 624.464844 530.039062 623.253906 530.742188 C 622.011719 531.378906 620.773438 532.015625 619.542969 532.648438 C 618.929688 532.964844 618.316406 533.28125 617.707031 533.597656 C 617.074219 533.878906 616.449219 534.167969 615.820312 534.445312 C 614.574219 535.015625 613.332031 535.582031 612.09375 536.144531 C 610.832031 536.640625 609.570312 537.140625 608.3125 537.636719 C 607.6875 537.882812 607.0625 538.132812 606.445312 538.382812 C 605.820312 538.632812 605.175781 538.816406 604.542969 539.039062 C 603.28125 539.464844 602.023438 539.894531 600.765625 540.316406 C 600.148438 540.546875 599.511719 540.710938 598.875 540.890625 C 598.242188 541.066406 597.609375 541.246094 596.980469 541.425781 C 596.347656 541.605469 595.722656 541.78125 595.089844 541.960938 C 594.472656 542.132812 593.828125 542.335938 593.269531 542.4375 C 592.121094 542.699219 590.976562 542.960938 589.835938 543.214844 C 589.269531 543.359375 588.703125 543.488281 588.140625 543.625 C 587.394531 543.757812 586.652344 543.894531 585.914062 544.027344 C 584.433594 544.292969 582.960938 544.5625 581.5 544.832031 L 580.949219 544.925781 L 580.671875 544.976562 C 580.058594 545.097656 581.207031 544.867188 581.003906 544.898438 L 580.039062 545.023438 C 579.394531 545.097656 578.757812 545.179688 578.121094 545.257812 C 567.949219 546.605469 557.929688 546.949219 548.296875 546.695312 C 538.640625 546.367188 529.378906 545.421875 520.65625 544.242188 C 520.527344 544.226562 520.394531 544.203125 520.261719 544.183594 C 501.445312 541.449219 489.609375 522.449219 495.304688 504.3125 L 498.09375 495.433594 L 362.039062 525.761719 L 409.179688 577.085938 L 456.324219 628.421875 L 460.828125 614.097656 C 465.347656 599.699219 479.585938 590.667969 494.53125 592.714844 C 500.996094 593.601562 507.855469 594.390625 515.109375 595.015625 C 525.417969 595.832031 536.507812 596.339844 548.34375 596.0625 C 560.1875 595.710938 572.773438 594.597656 585.855469 592.101562 C 586.671875 591.949219 587.488281 591.800781 588.3125 591.648438 L 589.542969 591.421875 C 589.515625 591.421875 590.855469 591.160156 590.414062 591.242188 L 590.691406 591.179688 L 591.234375 591.042969 C 592.679688 590.699219 594.136719 590.347656 595.59375 589.996094 C 596.328125 589.816406 597.0625 589.644531 597.792969 589.46875 C 598.695312 589.21875 599.59375 588.964844 600.492188 588.714844 C 602.285156 588.199219 604.089844 587.675781 605.910156 587.160156 C 606.839844 586.902344 607.648438 586.605469 608.488281 586.316406 C 609.332031 586.03125 610.175781 585.738281 611.023438 585.449219 C 611.867188 585.15625 612.707031 584.863281 613.554688 584.570312 C 614.398438 584.277344 615.25 583.988281 616.082031 583.640625 C 617.753906 582.96875 619.429688 582.292969 621.113281 581.613281 C 621.949219 581.265625 622.800781 580.945312 623.632812 580.566406 C 624.460938 580.1875 625.292969 579.804688 626.117188 579.421875 C 627.777344 578.652344 629.441406 577.871094 631.113281 577.09375 C 632.746094 576.242188 634.390625 575.378906 636.035156 574.519531 C 636.859375 574.085938 637.675781 573.652344 638.503906 573.21875 C 639.308594 572.746094 640.113281 572.273438 640.921875 571.800781 C 642.527344 570.851562 644.148438 569.894531 645.769531 568.9375 C 647.34375 567.90625 648.925781 566.871094 650.511719 565.828125 C 651.304688 565.308594 652.09375 564.78125 652.886719 564.257812 C 653.65625 563.695312 654.429688 563.140625 655.203125 562.578125 C 656.738281 561.449219 658.289062 560.328125 659.824219 559.171875 C 661.316406 557.96875 662.816406 556.761719 664.324219 555.546875 C 665.066406 554.933594 665.839844 554.347656 666.558594 553.703125 C 667.28125 553.054688 668.007812 552.414062 668.734375 551.761719 C 669.457031 551.117188 670.183594 550.46875 670.910156 549.824219 C 671.628906 549.167969 672.371094 548.535156 673.058594 547.839844 C 674.449219 546.46875 675.847656 545.097656 677.25 543.722656 L 678.296875 542.679688 L 679.304688 541.605469 C 679.964844 540.875 680.636719 540.15625 681.304688 539.429688 C 684.042969 536.582031 686.519531 533.472656 689.085938 530.429688 C 690.300781 528.839844 691.511719 527.253906 692.722656 525.660156 C 693.320312 524.855469 693.960938 524.082031 694.515625 523.246094 L 696.230469 520.761719 L 697.9375 518.273438 L 698.789062 517.023438 L 699.59375 515.734375 C 700.65625 514.019531 701.722656 512.296875 702.785156 510.570312 C 703.820312 508.820312 704.78125 507.023438 705.777344 505.25 C 706.261719 504.351562 706.78125 503.46875 707.238281 502.558594 L 708.601562 499.816406 L 709.960938 497.054688 L 710.644531 495.675781 L 711.261719 494.265625 C 712.085938 492.386719 712.90625 490.496094 713.730469 488.605469 C 714.507812 486.699219 715.21875 484.753906 715.953125 482.820312 C 716.3125 481.851562 716.714844 480.894531 717.027344 479.902344 L 717.996094 476.945312 L 718.960938 473.980469 C 719.117188 473.480469 719.289062 472.992188 719.433594 472.492188 L 719.847656 470.984375 C 720.394531 468.972656 720.941406 466.957031 721.492188 464.941406 C 722.40625 460.851562 723.390625 456.78125 724.023438 452.613281 C 724.808594 448.480469 725.21875 444.277344 725.707031 440.082031 C 725.859375 437.96875 726.007812 435.859375 726.15625 433.742188 L 726.261719 432.160156 C 726.289062 431.632812 726.289062 431.097656 726.300781 430.566406 L 726.363281 427.386719 L 726.421875 424.199219 C 726.449219 423.136719 726.378906 422.070312 726.359375 421.011719 " fill-opacity="1" fill-rule="nonzero"/></g><g clip-path="url(#95232b78b7)"><path fill="#bf1b2c" d="M 145.957031 390.304688 C 145.96875 389.921875 145.972656 389.53125 145.988281 389.148438 L 146.066406 387.996094 C 146.171875 386.464844 146.28125 384.933594 146.386719 383.402344 C 146.746094 380.355469 147.042969 377.304688 147.613281 374.308594 C 148.070312 371.285156 148.789062 368.324219 149.445312 365.367188 C 149.84375 363.898438 150.242188 362.4375 150.640625 360.980469 L 150.941406 359.886719 C 151.046875 359.523438 151.171875 359.167969 151.28125 358.808594 L 151.980469 356.652344 L 152.683594 354.511719 C 152.914062 353.792969 153.207031 353.097656 153.460938 352.394531 C 154.003906 350.992188 154.511719 349.582031 155.078125 348.199219 C 155.679688 346.824219 156.273438 345.457031 156.871094 344.089844 L 157.320312 343.0625 L 157.8125 342.0625 L 158.796875 340.066406 L 159.789062 338.070312 C 160.121094 337.414062 160.496094 336.777344 160.847656 336.125 C 161.570312 334.835938 162.269531 333.53125 163.019531 332.265625 C 163.792969 331.007812 164.566406 329.761719 165.335938 328.515625 L 165.917969 327.578125 L 166.535156 326.671875 L 167.777344 324.867188 L 169.019531 323.070312 C 169.425781 322.464844 169.886719 321.902344 170.320312 321.316406 C 171.199219 320.160156 172.078125 319.007812 172.957031 317.851562 C 174.820312 315.644531 176.617188 313.386719 178.597656 311.320312 C 179.085938 310.800781 179.574219 310.277344 180.058594 309.753906 L 180.785156 308.964844 L 181.542969 308.207031 C 182.5625 307.214844 183.574219 306.21875 184.585938 305.222656 C 185.082031 304.71875 185.621094 304.261719 186.144531 303.785156 C 186.671875 303.308594 187.199219 302.84375 187.726562 302.375 C 188.25 301.90625 188.777344 301.4375 189.300781 300.972656 C 189.824219 300.503906 190.382812 300.078125 190.925781 299.628906 C 192.015625 298.75 193.101562 297.871094 194.183594 296.996094 C 195.300781 296.167969 196.425781 295.351562 197.539062 294.527344 C 198.101562 294.128906 198.660156 293.71875 199.21875 293.308594 C 199.796875 292.933594 200.367188 292.550781 200.941406 292.175781 C 202.09375 291.417969 203.242188 290.664062 204.382812 289.917969 C 205.558594 289.222656 206.734375 288.527344 207.902344 287.839844 C 208.488281 287.496094 209.070312 287.148438 209.65625 286.8125 C 210.253906 286.492188 210.847656 286.179688 211.445312 285.867188 C 212.640625 285.242188 213.828125 284.617188 215.015625 284 C 216.226562 283.433594 217.4375 282.871094 218.640625 282.308594 C 219.242188 282.035156 219.84375 281.753906 220.445312 281.480469 C 221.042969 281.199219 221.664062 280.976562 222.273438 280.722656 C 223.492188 280.230469 224.710938 279.738281 225.921875 279.253906 C 226.523438 279 227.144531 278.789062 227.753906 278.578125 C 228.28125 278.390625 228.800781 278.214844 229.324219 278.03125 L 228.914062 278.105469 C 228.929688 278.105469 228.003906 278.289062 228.304688 278.234375 L 228.121094 278.277344 L 227.742188 278.367188 C 226.738281 278.609375 225.726562 278.851562 224.714844 279.09375 C 224.207031 279.214844 223.695312 279.335938 223.1875 279.464844 C 222.5625 279.636719 221.941406 279.808594 221.316406 279.988281 C 220.070312 280.34375 218.816406 280.703125 217.554688 281.066406 C 216.910156 281.246094 216.347656 281.449219 215.761719 281.644531 C 215.175781 281.851562 214.59375 282.054688 214.007812 282.25 C 213.421875 282.457031 212.835938 282.660156 212.25 282.863281 C 211.660156 283.066406 211.070312 283.265625 210.492188 283.507812 C 209.335938 283.972656 208.171875 284.445312 207.003906 284.917969 C 206.421875 285.160156 205.828125 285.378906 205.253906 285.640625 C 204.679688 285.90625 204.101562 286.167969 203.523438 286.4375 C 202.375 286.972656 201.21875 287.507812 200.058594 288.046875 C 198.925781 288.640625 197.789062 289.242188 196.644531 289.835938 C 196.074219 290.140625 195.503906 290.441406 194.933594 290.742188 C 194.371094 291.066406 193.8125 291.398438 193.253906 291.722656 C 192.136719 292.386719 191.015625 293.046875 189.886719 293.714844 C 188.792969 294.425781 187.699219 295.148438 186.597656 295.867188 C 186.046875 296.230469 185.496094 296.597656 184.949219 296.960938 C 184.410156 297.347656 183.878906 297.738281 183.34375 298.125 C 182.273438 298.910156 181.199219 299.6875 180.132812 300.484375 C 179.09375 301.328125 178.054688 302.164062 177.011719 303.011719 C 176.496094 303.441406 175.957031 303.839844 175.457031 304.285156 C 174.953125 304.734375 174.453125 305.1875 173.949219 305.632812 C 173.445312 306.078125 172.941406 306.53125 172.4375 306.976562 C 171.9375 307.429688 171.421875 307.875 170.945312 308.355469 C 169.980469 309.308594 169.007812 310.261719 168.035156 311.21875 L 167.308594 311.941406 L 166.613281 312.6875 C 166.152344 313.191406 165.683594 313.695312 165.21875 314.191406 C 163.320312 316.175781 161.605469 318.332031 159.820312 320.441406 C 158.980469 321.542969 158.136719 322.648438 157.296875 323.75 C 156.882812 324.3125 156.4375 324.847656 156.054688 325.429688 L 154.863281 327.152344 L 153.675781 328.878906 L 153.085938 329.746094 L 152.53125 330.640625 C 151.792969 331.832031 151.054688 333.03125 150.3125 334.226562 C 149.59375 335.441406 148.929688 336.6875 148.234375 337.921875 C 147.898438 338.542969 147.539062 339.15625 147.21875 339.785156 L 146.273438 341.691406 L 145.332031 343.605469 L 144.859375 344.5625 L 144.429688 345.546875 C 143.859375 346.851562 143.289062 348.160156 142.71875 349.472656 C 142.175781 350.800781 141.683594 352.144531 141.171875 353.484375 C 140.921875 354.160156 140.644531 354.824219 140.425781 355.511719 L 139.753906 357.566406 L 139.085938 359.625 C 138.976562 359.96875 138.859375 360.308594 138.757812 360.660156 L 138.46875 361.707031 C 138.089844 363.101562 137.707031 364.5 137.324219 365.898438 C 136.695312 368.734375 136.007812 371.566406 135.570312 374.453125 C 135.027344 377.324219 134.742188 380.238281 134.402344 383.152344 C 134.296875 384.621094 134.195312 386.082031 134.09375 387.554688 L 134.015625 388.652344 C 134 389.019531 134 389.386719 133.988281 389.757812 L 133.945312 391.96875 L 133.902344 394.175781 C 133.890625 394.914062 133.933594 395.65625 133.949219 396.394531 C 134.003906 397.867188 134.023438 399.347656 134.109375 400.820312 C 134.230469 402.292969 134.347656 403.765625 134.464844 405.246094 C 134.5 405.617188 134.523438 405.988281 134.5625 406.351562 L 134.707031 407.453125 L 134.996094 409.660156 L 135.289062 411.863281 C 135.398438 412.59375 135.550781 413.320312 135.675781 414.054688 L 136.082031 416.242188 L 136.285156 417.339844 L 136.386719 417.886719 C 136.347656 417.714844 136.492188 418.421875 136.5 418.4375 L 136.554688 418.675781 C 136.871094 419.976562 137.179688 421.28125 137.492188 422.582031 L 137.730469 423.5625 L 138.046875 424.691406 L 138.695312 426.953125 L 139.351562 429.199219 C 139.574219 429.941406 139.832031 430.625 140.070312 431.339844 L 140.804688 433.449219 C 141.175781 434.46875 141.460938 435.519531 142.035156 436.472656 C 142.308594 437.125 142.578125 437.753906 142.851562 438.402344 C 143.105469 439.597656 143.660156 440.667969 144.160156 441.765625 L 145.105469 443.800781 C 145.425781 444.484375 145.722656 445.164062 146.0625 445.835938 L 147.105469 447.824219 L 148.152344 449.808594 C 148.332031 450.140625 148.496094 450.476562 148.683594 450.796875 L 149.253906 451.765625 C 150.019531 453.054688 150.785156 454.34375 151.550781 455.632812 C 152.371094 456.882812 153.195312 458.128906 154.023438 459.378906 C 157.417969 464.324219 161.179688 469.003906 165.261719 473.375 C 169.375 477.722656 173.832031 481.726562 178.535156 485.382812 L 180.3125 486.734375 C 180.910156 487.179688 181.488281 487.65625 182.113281 488.0625 L 185.792969 490.585938 C 188.308594 492.175781 190.816406 493.761719 193.4375 495.160156 L 195.382812 496.238281 C 196.042969 496.574219 196.707031 496.894531 197.371094 497.226562 L 199.363281 498.207031 L 200.359375 498.699219 L 201.375 499.148438 L 205.4375 500.90625 L 209.578125 502.476562 C 211.933594 503.316406 214.3125 504.082031 216.710938 504.773438 L 216.390625 504.628906 L 215.328125 504.164062 L 214.289062 503.65625 L 212.207031 502.628906 C 211.515625 502.285156 210.816406 501.953125 210.128906 501.597656 L 208.089844 500.472656 C 205.355469 499.011719 202.734375 497.347656 200.105469 495.6875 L 196.257812 493.046875 C 195.605469 492.621094 195.003906 492.132812 194.378906 491.664062 L 192.515625 490.253906 C 187.601562 486.429688 182.945312 482.246094 178.644531 477.695312 C 174.375 473.128906 170.445312 468.238281 166.898438 463.074219 C 166.035156 461.765625 165.175781 460.460938 164.3125 459.152344 C 163.511719 457.804688 162.710938 456.460938 161.914062 455.113281 L 161.316406 454.105469 C 161.121094 453.761719 160.949219 453.410156 160.761719 453.066406 L 159.667969 450.996094 L 158.578125 448.914062 C 158.226562 448.214844 157.910156 447.5 157.574219 446.792969 L 156.589844 444.660156 C 156.066406 443.519531 155.484375 442.398438 155.222656 441.148438 C 154.9375 440.472656 154.652344 439.804688 154.367188 439.132812 C 153.765625 438.136719 153.472656 437.039062 153.082031 435.976562 L 152.316406 433.761719 C 152.066406 433.015625 151.796875 432.308594 151.5625 431.53125 L 150.878906 429.175781 L 150.203125 426.816406 L 149.867188 425.636719 L 149.625 424.617188 C 149.292969 423.25 148.96875 421.890625 148.644531 420.535156 L 148.582031 420.28125 C 148.574219 420.265625 148.425781 419.527344 148.460938 419.699219 L 148.359375 419.132812 L 148.144531 417.984375 L 147.722656 415.699219 C 147.585938 414.933594 147.429688 414.175781 147.320312 413.410156 L 147.011719 411.101562 L 146.707031 408.800781 L 146.558594 407.652344 C 146.519531 407.261719 146.492188 406.878906 146.460938 406.488281 C 146.332031 404.949219 146.207031 403.402344 146.082031 401.867188 C 145.992188 400.324219 145.972656 398.78125 145.917969 397.234375 C 145.902344 396.464844 145.855469 395.691406 145.867188 394.921875 L 145.910156 392.609375 Z M 290.84375 239.34375 C 290.953125 237.570312 292.421875 236.183594 294.191406 236.195312 C 301.101562 236.25 308.472656 237.152344 315.988281 239.023438 C 321.039062 240.273438 325.828125 241.878906 330.292969 243.769531 C 335 235.960938 344.121094 231.203125 353.992188 232.761719 C 365.03125 234.503906 373.382812 244.082031 373.617188 255.253906 C 373.910156 269.320312 361.960938 280.304688 348.136719 279.039062 C 336.273438 277.953125 326.996094 267.851562 326.945312 255.9375 C 326.9375 253.777344 327.222656 251.691406 327.753906 249.707031 C 323.667969 247.855469 319.210938 246.292969 314.472656 245.121094 C 307.449219 243.378906 300.578125 242.671875 294.261719 242.867188 C 292.308594 242.933594 290.730469 241.292969 290.84375 239.34375 Z M 81.070312 388.984375 C 81.144531 391.113281 81.171875 393.242188 81.300781 395.367188 C 81.472656 397.492188 81.644531 399.613281 81.816406 401.746094 C 81.863281 402.273438 81.898438 402.804688 81.953125 403.332031 L 82.160156 404.921875 L 82.578125 408.097656 L 83.003906 411.273438 C 83.15625 412.332031 83.375 413.378906 83.558594 414.429688 L 84.140625 417.585938 L 84.433594 419.164062 L 84.578125 419.949219 C 84.527344 419.703125 84.730469 420.726562 84.742188 420.746094 L 84.828125 421.09375 C 85.273438 422.96875 85.726562 424.847656 86.175781 426.71875 L 86.515625 428.128906 L 86.976562 429.757812 L 87.910156 433.011719 L 88.851562 436.257812 C 89.175781 437.328125 89.546875 438.300781 89.890625 439.328125 L 90.949219 442.378906 C 91.484375 443.851562 91.886719 445.363281 92.714844 446.734375 C 93.113281 447.664062 93.5 448.574219 93.898438 449.515625 C 94.257812 451.230469 95.0625 452.78125 95.777344 454.355469 L 97.140625 457.289062 C 97.597656 458.265625 98.035156 459.253906 98.519531 460.214844 L 100.023438 463.082031 L 101.53125 465.941406 C 101.789062 466.421875 102.027344 466.90625 102.296875 467.371094 L 103.121094 468.761719 C 104.21875 470.617188 105.324219 472.476562 106.421875 474.332031 C 107.613281 476.132812 108.796875 477.933594 109.988281 479.738281 C 114.878906 486.851562 120.296875 493.597656 126.179688 499.890625 C 132.105469 506.15625 138.523438 511.925781 145.300781 517.203125 L 147.867188 519.148438 C 148.730469 519.785156 149.558594 520.460938 150.457031 521.054688 L 155.757812 524.691406 C 159.382812 526.980469 162.996094 529.273438 166.769531 531.285156 L 169.574219 532.835938 C 170.523438 533.324219 171.488281 533.785156 172.441406 534.261719 L 175.3125 535.671875 L 176.742188 536.378906 L 184.066406 539.5625 L 190.023438 541.820312 C 198.019531 544.683594 206.191406 546.933594 214.453125 548.574219 C 222.726562 550.140625 231.078125 551.046875 239.394531 551.375 C 241.476562 551.414062 243.554688 551.449219 245.628906 551.488281 C 247.707031 551.457031 249.777344 551.375 251.84375 551.308594 C 253.910156 551.285156 255.972656 551.082031 258.023438 550.914062 C 260.078125 550.738281 262.132812 550.621094 264.164062 550.308594 C 266.199219 550.042969 268.230469 549.765625 270.257812 549.5 C 272.269531 549.128906 274.277344 548.757812 276.28125 548.386719 L 277.78125 548.109375 L 278.710938 547.929688 L 279.40625 547.769531 L 282.1875 547.121094 L 283.589844 546.792969 L 285.121094 546.386719 L 288.179688 545.570312 C 303.90625 541.097656 318.445312 534.058594 331.355469 525.585938 C 344.3125 517.152344 355.800781 507.507812 366.371094 497.65625 C 376.945312 487.792969 386.667969 477.722656 396.011719 467.910156 C 405.347656 458.085938 414.292969 448.507812 423.089844 439.40625 C 431.878906 430.304688 440.496094 421.675781 449.015625 413.644531 C 466.011719 397.570312 482.632812 383.953125 498.164062 372.949219 C 513.679688 361.921875 528.003906 353.421875 540.121094 347.019531 C 552.234375 340.589844 562.089844 336.164062 568.859375 333.28125 C 572.234375 331.800781 574.863281 330.78125 576.621094 330.050781 C 578.386719 329.339844 579.292969 328.96875 579.292969 328.96875 C 579.292969 328.96875 578.371094 329.285156 576.5625 329.898438 C 574.765625 330.523438 572.078125 331.398438 568.625 332.6875 C 561.699219 335.199219 551.582031 339.078125 539.050781 344.851562 C 526.511719 350.601562 511.59375 358.363281 495.273438 368.632812 C 478.945312 378.875 461.296875 391.75 443.160156 407.082031 C 434.078125 414.738281 424.871094 422.984375 415.5 431.65625 C 406.128906 440.324219 396.613281 449.425781 386.808594 458.652344 C 376.996094 467.867188 366.890625 477.21875 356.203125 486.117188 C 345.523438 495.015625 334.214844 503.433594 322.050781 510.410156 C 320.542969 511.316406 318.988281 512.113281 317.457031 512.960938 C 315.914062 513.789062 314.339844 514.554688 312.78125 515.359375 C 309.625 516.871094 306.441406 518.335938 303.1875 519.617188 C 296.699219 522.222656 289.992188 524.363281 283.175781 525.882812 L 280.707031 526.390625 L 279.46875 526.652344 L 278.078125 526.902344 L 275.269531 527.386719 L 274.566406 527.515625 C 274.816406 527.464844 274.445312 527.519531 274.414062 527.519531 L 274.082031 527.566406 L 272.761719 527.730469 C 271.003906 527.953125 269.242188 528.179688 267.472656 528.40625 C 265.703125 528.542969 263.925781 528.675781 262.152344 528.808594 C 260.382812 528.988281 258.59375 528.976562 256.816406 529.03125 C 255.035156 529.078125 253.253906 529.160156 251.46875 529.078125 C 249.6875 529.019531 247.902344 529 246.121094 528.929688 C 244.34375 528.796875 242.5625 528.660156 240.78125 528.53125 C 233.667969 527.839844 226.597656 526.664062 219.648438 524.949219 C 212.714844 523.152344 205.910156 520.855469 199.308594 518.070312 L 194.398438 515.886719 L 189.601562 513.46875 L 188.402344 512.871094 L 187.234375 512.203125 L 184.894531 510.882812 C 184.121094 510.441406 183.332031 510.015625 182.5625 509.554688 L 180.292969 508.125 C 177.230469 506.277344 174.328125 504.179688 171.417969 502.113281 L 167.179688 498.839844 C 166.457031 498.308594 165.804688 497.699219 165.117188 497.132812 L 163.082031 495.394531 C 157.71875 490.707031 152.691406 485.652344 148.117188 480.242188 C 143.589844 474.796875 139.484375 469.035156 135.832031 463.042969 L 133.183594 458.492188 L 130.769531 453.832031 L 130.167969 452.671875 C 129.964844 452.28125 129.800781 451.882812 129.617188 451.484375 L 128.535156 449.097656 L 127.445312 446.726562 C 127.097656 445.929688 126.800781 445.113281 126.472656 444.304688 L 125.511719 441.886719 C 125.1875 441.050781 124.828125 440.242188 124.570312 439.386719 C 124.070312 437.894531 123.570312 436.402344 123.074219 434.917969 C 122.675781 433.992188 122.46875 433.003906 122.179688 432.046875 L 121.472656 429.550781 C 121.246094 428.734375 120.972656 427.878906 120.785156 427.082031 L 120.246094 424.722656 L 119.699219 422.363281 L 119.417969 421.191406 L 118.988281 418.84375 C 118.589844 416.25 117.941406 412.007812 117.542969 409.414062 C 117.539062 409.394531 117.539062 409.378906 117.539062 409.359375 C 117.4375 408.519531 117.304688 407.675781 117.230469 406.828125 L 117.042969 404.28125 L 116.851562 401.746094 L 116.753906 400.484375 C 116.734375 400.0625 116.734375 399.632812 116.71875 399.214844 C 116.679688 397.523438 116.636719 395.839844 116.597656 394.15625 C 116.59375 392.472656 116.679688 390.796875 116.707031 389.125 C 116.738281 388.28125 116.722656 387.445312 116.789062 386.613281 L 116.988281 384.117188 L 117.171875 381.625 C 117.207031 381.207031 117.230469 380.792969 117.269531 380.378906 L 117.433594 379.144531 C 117.640625 377.496094 117.847656 375.855469 118.054688 374.210938 C 118.644531 370.960938 119.125 367.707031 119.933594 364.523438 C 120.589844 361.316406 121.570312 358.199219 122.429688 355.070312 C 122.945312 353.535156 123.460938 352.003906 123.976562 350.46875 L 124.355469 349.320312 C 124.488281 348.945312 124.648438 348.566406 124.792969 348.191406 L 125.667969 345.945312 L 126.539062 343.703125 C 126.824219 342.953125 127.183594 342.242188 127.5 341.507812 C 128.164062 340.046875 128.785156 338.578125 129.464844 337.144531 C 130.179688 335.730469 130.898438 334.316406 131.609375 332.90625 L 132.144531 331.84375 L 132.730469 330.820312 L 133.898438 328.765625 L 135.054688 326.71875 C 135.445312 326.035156 135.886719 325.390625 136.300781 324.71875 C 137.148438 323.40625 137.949219 322.074219 138.8125 320.785156 C 139.703125 319.511719 140.59375 318.25 141.480469 316.976562 L 142.140625 316.035156 L 142.851562 315.121094 L 144.265625 313.296875 L 145.667969 311.480469 C 146.175781 310.792969 146.785156 310.171875 147.320312 309.503906 C 148.246094 308.425781 149.167969 307.347656 150.097656 306.265625 C 152.195312 304.082031 154.171875 301.816406 156.371094 299.800781 L 157.972656 298.246094 L 158.773438 297.476562 L 159.609375 296.742188 C 160.722656 295.765625 161.832031 294.796875 162.9375 293.828125 C 163.472656 293.328125 164.066406 292.890625 164.636719 292.429688 C 165.207031 291.976562 165.777344 291.523438 166.351562 291.074219 C 166.921875 290.621094 167.488281 290.167969 168.054688 289.710938 C 168.621094 289.253906 169.230469 288.859375 169.808594 288.433594 C 170.984375 287.589844 172.152344 286.746094 173.316406 285.90625 C 174.519531 285.132812 175.71875 284.355469 176.910156 283.582031 C 177.503906 283.195312 178.097656 282.808594 178.695312 282.421875 C 179.308594 282.074219 179.917969 281.714844 180.53125 281.363281 C 181.75 280.65625 182.960938 279.957031 184.171875 279.253906 C 185.414062 278.617188 186.652344 277.980469 187.882812 277.347656 C 188.5 277.03125 189.113281 276.714844 189.726562 276.398438 C 190.351562 276.117188 190.980469 275.828125 191.605469 275.550781 C 192.855469 274.980469 194.097656 274.414062 195.332031 273.851562 C 196.597656 273.355469 197.859375 272.855469 199.113281 272.359375 C 199.742188 272.113281 200.363281 271.863281 200.988281 271.613281 C 201.605469 271.363281 202.253906 271.179688 202.886719 270.957031 C 204.148438 270.53125 205.40625 270.101562 206.660156 269.679688 C 207.277344 269.449219 207.917969 269.285156 208.550781 269.105469 C 209.1875 268.925781 209.816406 268.75 210.449219 268.570312 C 211.078125 268.390625 211.707031 268.214844 212.335938 268.035156 C 212.957031 267.863281 213.601562 267.660156 214.15625 267.558594 C 215.308594 267.296875 216.453125 267.035156 217.59375 266.78125 C 218.160156 266.636719 218.722656 266.507812 219.289062 266.371094 C 220.03125 266.238281 220.773438 266.101562 221.515625 265.96875 C 222.996094 265.703125 224.464844 265.433594 225.929688 265.164062 L 226.480469 265.070312 L 226.753906 265.019531 C 227.371094 264.898438 226.222656 265.128906 226.425781 265.097656 L 227.390625 264.972656 C 228.03125 264.898438 228.667969 264.816406 229.308594 264.738281 C 239.480469 263.390625 249.503906 263.046875 259.132812 263.300781 C 268.785156 263.628906 278.046875 264.574219 286.769531 265.753906 C 286.902344 265.769531 287.035156 265.792969 287.164062 265.8125 C 305.980469 268.546875 317.820312 287.546875 312.125 305.683594 L 309.335938 314.5625 L 377.363281 299.394531 L 445.386719 284.234375 L 398.246094 232.910156 L 351.101562 181.574219 L 346.601562 195.898438 C 342.082031 210.292969 327.84375 219.328125 312.894531 217.28125 C 306.429688 216.394531 299.574219 215.605469 292.324219 214.976562 C 282.007812 214.164062 270.921875 213.65625 259.085938 213.933594 C 247.242188 214.285156 234.65625 215.398438 221.574219 217.894531 C 220.757812 218.046875 219.9375 218.195312 219.117188 218.347656 L 217.886719 218.574219 C 217.90625 218.574219 216.570312 218.835938 217.011719 218.753906 L 216.738281 218.816406 L 216.195312 218.953125 C 214.75 219.296875 213.292969 219.648438 211.832031 220 C 211.097656 220.175781 210.367188 220.347656 209.632812 220.527344 C 208.734375 220.777344 207.835938 221.03125 206.9375 221.28125 C 205.140625 221.796875 203.335938 222.320312 201.523438 222.835938 C 200.589844 223.09375 199.777344 223.390625 198.933594 223.679688 C 198.09375 223.964844 197.25 224.257812 196.40625 224.546875 C 195.566406 224.839844 194.722656 225.132812 193.875 225.425781 C 193.027344 225.726562 192.175781 226.007812 191.347656 226.355469 C 189.675781 227.027344 188 227.703125 186.316406 228.382812 C 185.476562 228.730469 184.625 229.050781 183.796875 229.429688 C 182.96875 229.804688 182.140625 230.191406 181.308594 230.574219 C 179.652344 231.34375 177.984375 232.125 176.3125 232.902344 C 174.679688 233.753906 173.039062 234.609375 171.390625 235.476562 C 170.574219 235.90625 169.75 236.34375 168.925781 236.777344 C 168.121094 237.25 167.3125 237.722656 166.507812 238.195312 C 164.898438 239.144531 163.28125 240.101562 161.660156 241.058594 C 160.085938 242.089844 158.503906 243.125 156.914062 244.164062 C 156.125 244.6875 155.332031 245.214844 154.539062 245.738281 C 153.769531 246.300781 153 246.855469 152.230469 247.417969 C 150.6875 248.546875 149.136719 249.667969 147.601562 250.824219 C 146.109375 252.027344 144.609375 253.230469 143.105469 254.449219 C 142.363281 255.0625 141.589844 255.648438 140.867188 256.292969 C 140.144531 256.9375 139.421875 257.582031 138.695312 258.226562 C 137.972656 258.878906 137.246094 259.527344 136.519531 260.171875 C 135.796875 260.828125 135.054688 261.460938 134.367188 262.15625 C 132.976562 263.527344 131.582031 264.898438 130.179688 266.273438 L 129.132812 267.316406 L 128.128906 268.390625 C 127.460938 269.113281 126.789062 269.839844 126.121094 270.566406 C 123.386719 273.410156 120.910156 276.523438 118.339844 279.566406 C 117.132812 281.15625 115.921875 282.742188 114.703125 284.335938 C 114.109375 285.140625 113.472656 285.914062 112.914062 286.746094 L 109.492188 291.722656 L 108.636719 292.972656 L 107.839844 294.261719 C 106.773438 295.976562 105.707031 297.699219 104.640625 299.425781 C 103.609375 301.175781 102.648438 302.972656 101.652344 304.746094 C 101.164062 305.644531 100.648438 306.527344 100.1875 307.429688 L 98.824219 310.179688 L 97.464844 312.941406 L 96.789062 314.320312 L 96.164062 315.730469 C 95.34375 317.609375 94.523438 319.5 93.699219 321.390625 C 92.917969 323.296875 92.214844 325.242188 91.472656 327.175781 C 91.113281 328.144531 90.714844 329.101562 90.398438 330.089844 L 89.429688 333.050781 L 88.464844 336.015625 C 88.308594 336.515625 88.136719 337.003906 87.996094 337.503906 L 87.578125 339.011719 C 87.035156 341.023438 86.484375 343.039062 85.933594 345.054688 C 85.027344 349.144531 84.035156 353.214844 83.402344 357.382812 C 82.625 361.515625 82.210938 365.71875 81.71875 369.914062 C 81.570312 372.027344 81.421875 374.136719 81.273438 376.253906 L 81.167969 377.835938 C 81.144531 378.363281 81.140625 378.898438 81.128906 379.429688 L 81.0625 382.609375 L 81.003906 385.792969 C 80.984375 386.859375 81.050781 387.925781 81.070312 388.984375 " fill-opacity="1" fill-rule="nonzero"/></g><g fill="#f1f1f1" fill-opacity="1"><g transform="translate(232.787701, 490.930894)"><g><path d="M 131.734375 0 L 98.109375 -48.5625 L 61.015625 -48.5625 L 61.015625 0 L 20.671875 0 L 20.671875 -174.3125 L 96.125 -174.3125 C 111.5625 -174.3125 124.960938 -171.738281 136.328125 -166.59375 C 147.703125 -161.445312 156.460938 -154.140625 162.609375 -144.671875 C 168.753906 -135.210938 171.828125 -124.007812 171.828125 -111.0625 C 171.828125 -98.113281 168.710938 -86.945312 162.484375 -77.5625 C 156.253906 -68.1875 147.414062 -61.007812 135.96875 -56.03125 L 175.0625 0 Z M 130.984375 -111.0625 C 130.984375 -120.851562 127.828125 -128.363281 121.515625 -133.59375 C 115.210938 -138.820312 106 -141.4375 93.875 -141.4375 L 61.015625 -141.4375 L 61.015625 -80.6875 L 93.875 -80.6875 C 106 -80.6875 115.210938 -83.34375 121.515625 -88.65625 C 127.828125 -93.96875 130.984375 -101.4375 130.984375 -111.0625 Z M 130.984375 -111.0625 "/></g></g></g><g fill="#f1f1f1" fill-opacity="1"><g transform="translate(415.813387, 490.930894)"><g><path d="M 77.9375 2.984375 C 64.164062 2.984375 50.84375 1.117188 37.96875 -2.609375 C 25.101562 -6.347656 14.769531 -11.207031 6.96875 -17.1875 L 20.671875 -47.5625 C 28.140625 -42.082031 37.019531 -37.679688 47.3125 -34.359375 C 57.601562 -31.046875 67.894531 -29.390625 78.1875 -29.390625 C 89.644531 -29.390625 98.113281 -31.085938 103.59375 -34.484375 C 109.070312 -37.890625 111.8125 -42.414062 111.8125 -48.0625 C 111.8125 -52.207031 110.191406 -55.648438 106.953125 -58.390625 C 103.710938 -61.128906 99.5625 -63.328125 94.5 -64.984375 C 89.4375 -66.648438 82.585938 -68.476562 73.953125 -70.46875 C 60.671875 -73.625 49.796875 -76.78125 41.328125 -79.9375 C 32.867188 -83.09375 25.609375 -88.15625 19.546875 -95.125 C 13.484375 -102.09375 10.453125 -111.390625 10.453125 -123.015625 C 10.453125 -133.140625 13.191406 -142.3125 18.671875 -150.53125 C 24.148438 -158.75 32.410156 -165.265625 43.453125 -170.078125 C 54.492188 -174.890625 67.984375 -177.296875 83.921875 -177.296875 C 95.046875 -177.296875 105.914062 -175.96875 116.53125 -173.3125 C 127.15625 -170.65625 136.453125 -166.835938 144.421875 -161.859375 L 131.984375 -131.234375 C 115.878906 -140.359375 99.773438 -144.921875 83.671875 -144.921875 C 72.378906 -144.921875 64.035156 -143.09375 58.640625 -139.4375 C 53.242188 -135.789062 50.546875 -130.976562 50.546875 -125 C 50.546875 -119.03125 53.65625 -114.59375 59.875 -111.6875 C 66.101562 -108.78125 75.613281 -105.914062 88.40625 -103.09375 C 101.6875 -99.9375 112.554688 -96.78125 121.015625 -93.625 C 129.484375 -90.476562 136.75 -85.5 142.8125 -78.6875 C 148.875 -71.882812 151.90625 -62.671875 151.90625 -51.046875 C 151.90625 -41.085938 149.125 -32 143.5625 -23.78125 C 138 -15.5625 129.65625 -9.046875 118.53125 -4.234375 C 107.40625 0.578125 93.875 2.984375 77.9375 2.984375 Z M 77.9375 2.984375 "/></g></g></g></svg>