<svg xmlns="http://www.w3.org/2000/svg" xmlns:xlink="http://www.w3.org/1999/xlink" width="1080" zoomAndPan="magnify" viewBox="0 0 810 809.999993" height="1080" preserveAspectRatio="xMidYMid meet" version="1.0"><rect x="-81" width="972" fill="#ffffff" y="-80.999999" height="971.999992" fill-opacity="1"/><rect x="-81" width="972" fill="#ffffff" y="-80.999999" height="971.999992" fill-opacity="1"/><path fill="#563d7c" d="M 81 645.445312 C 81 691.597656 118.410156 729 164.554688 729 L 645.445312 729 C 691.597656 729 729 691.589844 729 645.445312 L 729 164.554688 C 729 118.402344 691.589844 81 645.445312 81 L 164.554688 81 C 118.402344 81 81 118.410156 81 164.554688 Z M 81 645.445312 " fill-opacity="1" fill-rule="nonzero"/><path fill="#ffffff" d="M 349.710938 367.632812 L 349.710938 275.867188 L 430.488281 275.867188 C 438.183594 275.867188 445.597656 276.507812 452.742188 277.792969 C 459.886719 279.074219 466.207031 281.359375 471.699219 284.660156 C 477.195312 287.957031 481.589844 292.535156 484.890625 298.394531 C 488.183594 304.257812 489.835938 311.769531 489.835938 320.925781 C 489.835938 337.410156 484.890625 349.316406 474.996094 356.644531 C 465.105469 363.972656 452.46875 367.632812 437.082031 367.632812 Z M 263.441406 208.828125 L 263.441406 601.171875 L 453.566406 601.171875 C 471.152344 601.171875 488.277344 598.976562 504.945312 594.578125 C 521.613281 590.179688 536.449219 583.40625 549.457031 574.246094 C 562.457031 565.089844 572.808594 553.273438 580.5 538.804688 C 588.195312 524.332031 592.042969 507.207031 592.042969 487.425781 C 592.042969 462.878906 586.089844 441.90625 574.183594 424.507812 C 562.277344 407.105469 544.234375 394.925781 520.054688 387.964844 C 537.640625 379.539062 550.921875 368.730469 559.898438 355.542969 C 568.871094 342.355469 573.359375 325.875 573.359375 306.089844 C 573.359375 287.773438 570.335938 272.386719 564.292969 259.929688 C 558.246094 247.476562 549.730469 237.496094 538.738281 229.984375 C 527.75 222.472656 514.5625 217.070312 499.175781 213.773438 C 483.789062 210.476562 466.753906 208.828125 448.070312 208.828125 Z M 349.710938 534.132812 L 349.710938 426.429688 L 443.675781 426.429688 C 462.359375 426.429688 477.378906 430.734375 488.734375 439.34375 C 500.089844 447.953125 505.773438 462.332031 505.773438 482.480469 C 505.773438 492.738281 504.03125 501.164062 500.550781 507.757812 C 497.070312 514.351562 492.398438 519.570312 486.535156 523.417969 C 480.675781 527.265625 473.898438 530.011719 466.207031 531.660156 C 458.511719 533.304688 450.453125 534.132812 442.027344 534.132812 Z M 349.710938 534.132812 " fill-opacity="1" fill-rule="nonzero"/></svg>