<svg xmlns="http://www.w3.org/2000/svg" xmlns:xlink="http://www.w3.org/1999/xlink" width="1080" zoomAndPan="magnify" viewBox="0 0 810 809.999993" height="1080" preserveAspectRatio="xMidYMid meet" version="1.0"><rect x="-81" width="972" fill="#ffffff" y="-80.999999" height="971.999992" fill-opacity="1"/><rect x="-81" width="972" fill="#ffffff" y="-80.999999" height="971.999992" fill-opacity="1"/><path fill="#01ec64" d="M 460.941406 154.257812 C 433.847656 122.109375 410.515625 89.453125 405.75 82.675781 C 405.636719 82.554688 405.5 82.460938 405.347656 82.394531 C 405.199219 82.332031 405.035156 82.296875 404.871094 82.296875 C 404.707031 82.296875 404.542969 82.332031 404.394531 82.394531 C 404.242188 82.460938 404.105469 82.554688 403.992188 82.675781 C 399.226562 89.457031 375.894531 122.109375 348.796875 154.257812 C 116.230469 450.878906 385.425781 651.054688 385.425781 651.054688 L 387.683594 652.566406 C 389.691406 683.457031 394.710938 727.917969 394.710938 727.917969 L 414.78125 727.917969 C 414.78125 727.917969 419.796875 683.707031 421.804688 652.566406 L 424.0625 650.808594 C 424.3125 651.0625 693.511719 450.878906 460.941406 154.257812 Z M 404.746094 646.535156 C 404.746094 646.535156 392.703125 636.242188 389.441406 630.96875 L 389.441406 630.460938 L 403.992188 307.464844 C 403.992188 306.460938 405.5 306.460938 405.5 307.464844 L 420.050781 630.460938 L 420.050781 630.96875 C 416.789062 636.242188 404.746094 646.535156 404.746094 646.535156 Z M 404.746094 646.535156 " fill-opacity="1" fill-rule="nonzero"/></svg>