<svg xmlns="http://www.w3.org/2000/svg" xmlns:xlink="http://www.w3.org/1999/xlink" width="1080" zoomAndPan="magnify" viewBox="0 0 810 809.999993" height="1080" preserveAspectRatio="xMidYMid meet" version="1.0"><defs><clipPath id="9e2022803b"><path d="M 84.628906 84.628906 L 725.128906 84.628906 L 725.128906 725.128906 L 84.628906 725.128906 Z M 84.628906 84.628906 " clip-rule="nonzero"/></clipPath></defs><rect x="-81" width="972" fill="#ffffff" y="-80.999999" height="971.999992" fill-opacity="1"/><rect x="-81" width="972" fill="#ffffff" y="-80.999999" height="971.999992" fill-opacity="1"/><g clip-path="url(#9e2022803b)"><path fill="#000000" d="M 383.90625 84.804688 C 382.527344 84.929688 378.144531 85.367188 374.203125 85.679688 C 283.230469 93.878906 198.015625 142.960938 144.046875 218.394531 C 113.996094 260.335938 94.773438 307.914062 87.511719 358.304688 C 84.945312 375.898438 84.628906 381.09375 84.628906 404.941406 C 84.628906 428.792969 84.945312 433.988281 87.511719 451.582031 C 104.917969 571.835938 190.503906 672.875 306.582031 710.308594 C 327.371094 717.007812 349.28125 721.578125 374.203125 724.332031 C 383.90625 725.398438 425.855469 725.398438 435.558594 724.332031 C 478.574219 719.574219 515.011719 708.933594 550.949219 690.589844 C 556.460938 687.773438 557.523438 687.023438 556.773438 686.394531 C 556.269531 686.019531 532.792969 654.53125 504.617188 616.472656 L 453.402344 547.296875 L 389.226562 452.332031 C 353.917969 400.125 324.863281 357.429688 324.613281 357.429688 C 324.363281 357.367188 324.113281 399.558594 323.988281 451.078125 C 323.800781 541.289062 323.738281 544.917969 322.609375 547.046875 C 320.984375 550.113281 319.730469 551.367188 317.101562 552.742188 C 315.097656 553.746094 313.34375 553.933594 303.890625 553.933594 L 293.058594 553.933594 L 290.179688 552.117188 C 288.300781 550.929688 286.921875 549.363281 285.984375 547.546875 L 284.667969 544.730469 L 284.792969 419.214844 L 284.984375 293.640625 L 286.921875 291.199219 C 287.925781 289.882812 290.054688 288.191406 291.554688 287.378906 C 294.125 286.128906 295.125 286 305.957031 286 C 318.730469 286 320.859375 286.503906 324.175781 290.132812 C 325.117188 291.136719 359.863281 343.46875 401.4375 406.507812 C 443.011719 469.546875 499.859375 555.625 527.785156 597.878906 L 578.496094 674.691406 L 581.066406 673 C 603.792969 658.226562 627.835938 637.191406 646.867188 615.28125 C 687.375 568.769531 713.484375 512.054688 722.25 451.582031 C 724.816406 433.988281 725.128906 428.792969 725.128906 404.941406 C 725.128906 381.09375 724.816406 375.898438 722.25 358.304688 C 704.84375 238.050781 619.257812 137.011719 503.179688 99.578125 C 482.703125 92.941406 460.917969 88.371094 436.5 85.617188 C 430.488281 84.992188 389.101562 84.300781 383.90625 84.804688 Z M 515.011719 278.488281 C 518.015625 279.992188 520.457031 282.871094 521.335938 285.875 C 521.835938 287.503906 521.960938 322.308594 521.835938 400.75 L 521.648438 513.304688 L 501.800781 482.882812 L 481.890625 452.457031 L 481.890625 370.636719 C 481.890625 317.742188 482.140625 288.003906 482.515625 286.566406 C 483.519531 283.058594 485.710938 280.304688 488.714844 278.675781 C 491.28125 277.363281 492.222656 277.238281 502.050781 277.238281 C 511.316406 277.238281 512.945312 277.363281 515.011719 278.488281 Z M 515.011719 278.488281 " fill-opacity="1" fill-rule="nonzero"/></g></svg>