<svg xmlns="http://www.w3.org/2000/svg" xmlns:xlink="http://www.w3.org/1999/xlink" width="1080" zoomAndPan="magnify" viewBox="0 0 810 809.999993" height="1080" preserveAspectRatio="xMidYMid meet" version="1.0"><rect x="-81" width="972" fill="#ffffff" y="-80.999999" height="971.999992" fill-opacity="1"/><rect x="-81" width="972" fill="#ffffff" y="-80.999999" height="971.999992" fill-opacity="1"/><path fill="#8cc84b" d="M 377.90625 89.621094 C 394.058594 80.476562 414.652344 80.433594 430.402344 89.621094 L 671.554688 225.539062 C 686.636719 234.015625 696.730469 250.832031 696.589844 268.214844 L 696.589844 540.738281 C 696.691406 558.84375 685.605469 576.023438 669.695312 584.339844 L 429.835938 719.632812 C 427.796875 720.761719 425.6875 721.75 423.515625 722.597656 C 421.339844 723.445312 419.121094 724.144531 416.851562 724.695312 C 414.585938 725.246094 412.292969 725.644531 409.972656 725.890625 C 407.652344 726.136719 405.328125 726.226562 402.996094 726.160156 C 400.664062 726.097656 398.347656 725.878906 396.042969 725.503906 C 393.738281 725.128906 391.472656 724.605469 389.238281 723.929688 C 387.007812 723.253906 384.828125 722.433594 382.703125 721.46875 C 380.582031 720.5 378.53125 719.398438 376.554688 718.160156 L 304.578125 676.574219 C 299.671875 673.648438 294.160156 671.324219 290.6875 666.582031 C 293.753906 662.464844 299.207031 661.9375 303.648438 660.121094 C 313.664062 656.933594 322.828125 652.046875 332.035156 646.878906 C 334.359375 645.265625 337.203125 645.871094 339.425781 647.324219 L 400.804688 682.8125 C 405.183594 685.335938 409.625 682.003906 413.382812 679.886719 L 648.898438 546.996094 C 651.808594 545.582031 653.421875 542.511719 653.179688 539.324219 L 653.179688 269.425781 C 653.503906 265.789062 651.425781 262.480469 648.132812 261.007812 L 408.878906 126.300781 C 408.191406 125.824219 407.445312 125.460938 406.644531 125.207031 C 405.847656 124.957031 405.027344 124.832031 404.1875 124.828125 C 403.351562 124.828125 402.53125 124.949219 401.730469 125.199219 C 400.929688 125.445312 400.183594 125.804688 399.492188 126.277344 L 160.582031 261.269531 C 157.351562 262.742188 155.128906 266.011719 155.535156 269.648438 L 155.535156 539.546875 C 155.25 542.734375 156.945312 545.742188 159.875 547.117188 L 223.714844 583.148438 C 235.707031 589.609375 250.425781 593.242188 263.632812 588.5 C 265.066406 587.957031 266.457031 587.3125 267.792969 586.558594 C 269.132812 585.808594 270.40625 584.957031 271.613281 584.011719 C 272.820312 583.066406 273.953125 582.035156 275.003906 580.917969 C 276.054688 579.800781 277.019531 578.609375 277.890625 577.347656 C 278.757812 576.082031 279.53125 574.761719 280.199219 573.378906 C 280.871094 572 281.429688 570.574219 281.886719 569.109375 C 282.339844 567.644531 282.679688 566.152344 282.90625 564.632812 C 283.132812 563.117188 283.242188 561.589844 283.238281 560.054688 L 283.296875 291.773438 C 283.015625 287.792969 286.769531 284.503906 290.625 284.90625 L 321.316406 284.90625 C 325.351562 284.808594 328.523438 289.085938 327.976562 293.082031 L 327.917969 563.0625 C 327.9375 587.046875 318.085938 613.128906 295.894531 624.894531 C 268.558594 639.027344 234.761719 636.058594 207.746094 622.472656 L 139.097656 584.523438 C 122.945312 576.449219 112.105469 559.007812 112.207031 540.917969 L 112.207031 268.394531 C 112.222656 266.191406 112.386719 263.996094 112.695312 261.8125 C 113.003906 259.632812 113.457031 257.476562 114.050781 255.355469 C 114.648438 253.234375 115.378906 251.160156 116.253906 249.132812 C 117.125 247.109375 118.125 245.152344 119.257812 243.261719 C 120.390625 241.367188 121.644531 239.558594 123.019531 237.835938 C 124.394531 236.109375 125.875 234.484375 127.464844 232.957031 C 129.054688 231.429688 130.738281 230.015625 132.519531 228.710938 C 134.296875 227.410156 136.152344 226.230469 138.089844 225.175781 Z M 447.441406 278.527344 C 482.3125 276.511719 519.644531 277.195312 551.019531 294.375 C 575.308594 307.539062 588.773438 335.152344 589.21875 362.164062 C 588.53125 365.796875 584.734375 367.816406 581.261719 367.554688 C 571.167969 367.53125 561.03125 367.695312 550.898438 367.492188 C 546.597656 367.652344 544.113281 363.699219 543.566406 359.902344 C 540.660156 346.984375 533.613281 334.203125 521.460938 327.964844 C 502.804688 318.621094 481.160156 319.085938 460.808594 319.285156 C 445.949219 320.09375 429.976562 321.367188 417.398438 330.085938 C 407.707031 336.707031 404.800781 350.273438 408.253906 360.8125 C 411.484375 368.542969 420.429688 371.027344 427.71875 373.328125 C 469.753906 384.308594 514.273438 383.421875 555.519531 397.691406 C 572.582031 403.585938 589.277344 415.054688 595.132812 432.917969 C 602.765625 456.859375 599.433594 485.484375 582.414062 504.703125 C 568.605469 520.53125 548.496094 528.925781 528.40625 533.8125 C 501.695312 539.769531 473.992188 539.910156 446.878906 537.246094 C 421.378906 534.335938 394.847656 527.636719 375.164062 510.273438 C 358.324219 495.660156 350.125 472.886719 350.933594 450.925781 C 351.136719 447.210938 354.832031 444.625 358.40625 444.929688 L 388.691406 444.929688 C 392.769531 444.648438 395.757812 448.160156 395.957031 451.996094 C 397.835938 464.105469 402.460938 477.230469 413.199219 484.292969 C 433.914062 497.65625 459.898438 496.730469 483.605469 497.113281 C 503.25 496.246094 525.296875 495.980469 541.347656 482.980469 C 549.828125 475.574219 552.3125 463.199219 550.027344 452.539062 C 547.546875 443.535156 537.914062 439.359375 529.839844 436.390625 C 488.347656 423.269531 443.324219 428.035156 402.238281 413.175781 C 385.558594 407.28125 369.429688 396.136719 363.027344 379 C 354.082031 354.773438 358.183594 324.757812 377.019531 306.183594 C 395.191406 287.714844 421.84375 280.589844 447.078125 278.042969 Z M 447.441406 278.527344 " fill-opacity="1" fill-rule="nonzero"/></svg>