<svg xmlns="http://www.w3.org/2000/svg" xmlns:xlink="http://www.w3.org/1999/xlink" width="1080" zoomAndPan="magnify" viewBox="0 0 810 809.999993" height="1080" preserveAspectRatio="xMidYMid meet" version="1.0"><rect x="-81" width="972" fill="#ffffff" y="-80.999999" height="971.999992" fill-opacity="1"/><rect x="-81" width="972" fill="#ffffff" y="-80.999999" height="971.999992" fill-opacity="1"/><path fill="#ff6c37" d="M 629.675781 224.441406 C 626.796875 220.714844 623.828125 217.058594 620.769531 213.476562 C 617.710938 209.894531 614.566406 206.390625 611.335938 202.960938 C 608.105469 199.535156 604.792969 196.1875 601.398438 192.921875 C 598 189.65625 594.527344 186.476562 590.976562 183.382812 C 587.425781 180.289062 583.800781 177.285156 580.101562 174.367188 C 576.402344 171.449219 572.636719 168.625 568.796875 165.894531 C 564.960938 163.164062 561.058594 160.527344 557.089844 157.988281 C 553.125 155.445312 549.097656 153.003906 545.011719 150.664062 C 540.921875 148.320312 536.78125 146.082031 532.585938 143.941406 C 528.386719 141.800781 524.140625 139.769531 519.84375 137.835938 C 515.546875 135.90625 511.207031 134.082031 506.820312 132.367188 C 502.433594 130.648438 498.007812 129.039062 493.542969 127.539062 C 489.078125 126.039062 484.578125 124.648438 480.042969 123.371094 C 475.511719 122.089844 470.949219 120.925781 466.355469 119.867188 C 461.765625 118.8125 457.152344 117.871094 452.515625 117.042969 C 447.878906 116.214844 443.222656 115.5 438.550781 114.898438 C 433.878906 114.300781 429.195312 113.816406 424.5 113.445312 C 419.804688 113.074219 415.101562 112.820312 410.390625 112.679688 C 405.683594 112.539062 400.972656 112.515625 396.265625 112.609375 C 391.554688 112.699219 386.851562 112.910156 382.152344 113.230469 C 377.449219 113.554688 372.761719 113.992188 368.085938 114.546875 C 363.40625 115.097656 358.746094 115.765625 354.097656 116.546875 C 349.453125 117.328125 344.832031 118.226562 340.230469 119.234375 C 335.628906 120.242188 331.054688 121.363281 326.507812 122.597656 C 321.960938 123.832031 317.449219 125.175781 312.96875 126.628906 C 308.488281 128.085938 304.046875 129.648438 299.644531 131.320312 C 295.238281 132.996094 290.878906 134.773438 286.5625 136.664062 C 282.25 138.550781 277.980469 140.542969 273.761719 142.636719 C 269.542969 144.734375 265.378906 146.933594 261.269531 149.234375 C 257.160156 151.535156 253.109375 153.9375 249.117188 156.4375 C 245.125 158.9375 241.195312 161.53125 237.332031 164.226562 C 233.464844 166.917969 229.667969 169.703125 225.941406 172.582031 C 222.214844 175.460938 218.558594 178.429688 214.976562 181.488281 C 211.394531 184.546875 207.886719 187.691406 204.460938 190.925781 C 201.03125 194.15625 197.6875 197.46875 194.421875 200.863281 C 191.15625 204.257812 187.976562 207.730469 184.882812 211.28125 C 181.789062 214.832031 178.78125 218.457031 175.863281 222.15625 C 172.949219 225.855469 170.125 229.625 167.394531 233.460938 C 164.660156 237.296875 162.027344 241.199219 159.484375 245.167969 C 156.945312 249.132812 154.503906 253.160156 152.164062 257.246094 C 149.820312 261.332031 147.578125 265.476562 145.441406 269.671875 C 143.300781 273.867188 141.265625 278.113281 139.335938 282.410156 C 137.40625 286.707031 135.582031 291.050781 133.867188 295.433594 C 132.148438 299.820312 130.539062 304.246094 129.039062 308.710938 C 127.539062 313.175781 126.152344 317.675781 124.871094 322.207031 C 123.59375 326.742188 122.425781 331.304688 121.371094 335.894531 C 120.316406 340.484375 119.375 345.097656 118.546875 349.734375 C 117.71875 354.371094 117.003906 359.027344 116.40625 363.699219 C 115.804688 368.371094 115.320312 373.054688 114.949219 377.75 C 114.582031 382.445312 114.328125 387.144531 114.1875 391.855469 C 114.050781 396.5625 114.027344 401.269531 114.117188 405.980469 C 114.210938 410.6875 114.417969 415.394531 114.742188 420.09375 C 115.066406 424.792969 115.503906 429.480469 116.058594 434.15625 C 116.609375 438.835938 117.277344 443.496094 118.0625 448.140625 C 118.84375 452.785156 119.738281 457.40625 120.75 462.007812 C 121.757812 466.609375 122.878906 471.183594 124.113281 475.726562 C 125.347656 480.273438 126.691406 484.785156 128.148438 489.265625 C 129.605469 493.746094 131.167969 498.1875 132.84375 502.589844 C 134.515625 506.992188 136.296875 511.351562 138.183594 515.667969 C 140.074219 519.980469 142.066406 524.246094 144.164062 528.464844 C 146.257812 532.683594 148.457031 536.847656 150.761719 540.957031 C 153.0625 545.066406 155.464844 549.117188 157.964844 553.109375 C 160.464844 557.097656 163.0625 561.027344 165.753906 564.890625 C 168.449219 568.753906 171.234375 572.550781 174.117188 576.277344 C 176.996094 580.007812 179.964844 583.660156 183.023438 587.242188 C 186.082031 590.824219 189.230469 594.328125 192.460938 597.753906 C 195.691406 601.183594 199.003906 604.527344 202.402344 607.792969 C 205.796875 611.058594 209.269531 614.234375 212.824219 617.328125 C 216.375 620.421875 220 623.429688 223.699219 626.34375 C 227.398438 629.261719 231.167969 632.082031 235.003906 634.816406 C 238.84375 637.546875 242.746094 640.179688 246.714844 642.71875 C 250.679688 645.257812 254.707031 647.699219 258.796875 650.042969 C 262.882812 652.382812 267.023438 654.621094 271.222656 656.761719 C 275.417969 658.898438 279.667969 660.933594 283.964844 662.863281 C 288.261719 664.792969 292.601562 666.617188 296.988281 668.332031 C 301.375 670.046875 305.800781 671.65625 310.269531 673.15625 C 314.734375 674.65625 319.234375 676.042969 323.765625 677.320312 C 328.300781 678.601562 332.863281 679.765625 337.453125 680.820312 C 342.046875 681.875 346.660156 682.816406 351.296875 683.644531 C 355.933594 684.472656 360.589844 685.183594 365.261719 685.785156 C 369.933594 686.382812 374.617188 686.867188 379.316406 687.238281 C 384.011719 687.605469 388.714844 687.859375 393.421875 688 C 398.128906 688.136719 402.839844 688.160156 407.550781 688.066406 C 412.257812 687.972656 416.964844 687.765625 421.664062 687.441406 C 426.363281 687.117188 431.050781 686.679688 435.730469 686.125 C 440.40625 685.570312 445.070312 684.902344 449.714844 684.121094 C 454.359375 683.335938 458.980469 682.441406 463.582031 681.429688 C 468.183594 680.421875 472.757812 679.300781 477.304688 678.066406 C 481.847656 676.832031 486.363281 675.484375 490.84375 674.03125 C 495.320312 672.574219 499.765625 671.007812 504.167969 669.335938 C 508.570312 667.660156 512.929688 665.878906 517.246094 663.992188 C 521.5625 662.105469 525.828125 660.113281 530.046875 658.015625 C 534.261719 655.917969 538.425781 653.71875 542.535156 651.414062 C 546.644531 649.113281 550.695312 646.710938 554.6875 644.210938 C 558.679688 641.710938 562.609375 639.113281 566.472656 636.421875 C 570.335938 633.726562 574.132812 630.941406 577.859375 628.058594 C 703.601562 530.898438 726.804688 350.214844 629.667969 224.441406 Z M 629.675781 224.441406 " fill-opacity="1" fill-rule="nonzero"/><path fill="#ffffff" d="M 498.953125 295.921875 L 377.59375 418.230469 L 343.300781 382.976562 C 462.742188 263.546875 474.734375 274.335938 498.964844 295.921875 Z M 498.953125 295.921875 " fill-opacity="1" fill-rule="nonzero"/><path fill="#ff6c37" d="M 377.59375 421.574219 C 376.480469 421.546875 375.523438 421.148438 374.714844 420.378906 L 340.179688 385.84375 C 339.789062 385.441406 339.492188 384.980469 339.28125 384.460938 C 339.070312 383.945312 338.964844 383.40625 338.964844 382.84375 C 338.964844 382.285156 339.070312 381.746094 339.28125 381.226562 C 339.492188 380.707031 339.789062 380.25 340.179688 379.847656 C 457.941406 262.097656 474.011719 267.609375 501.832031 292.792969 C 502.304688 293.167969 502.667969 293.632812 502.921875 294.179688 C 503.171875 294.730469 503.289062 295.308594 503.269531 295.910156 C 503.453125 297.082031 503 298.277344 502.074219 299.03125 L 380.714844 420.386719 C 379.832031 421.195312 378.792969 421.59375 377.59375 421.582031 Z M 349.289062 382.964844 L 377.59375 411.269531 L 492.722656 296.15625 C 492.230469 295.539062 491.710938 294.945312 491.164062 294.378906 C 490.621094 293.808594 490.046875 293.265625 489.453125 292.75 C 488.859375 292.234375 488.242188 291.742188 487.601562 291.285156 C 486.960938 290.824219 486.300781 290.394531 485.621094 289.992188 C 484.941406 289.59375 484.246094 289.226562 483.535156 288.886719 C 482.820312 288.550781 482.09375 288.25 481.351562 287.976562 C 480.613281 287.707031 479.863281 287.472656 479.097656 287.269531 C 478.335938 287.070312 477.566406 286.902344 476.789062 286.769531 C 476.011719 286.640625 475.230469 286.542969 474.445312 286.484375 C 473.660156 286.425781 472.871094 286.398438 472.082031 286.410156 C 471.296875 286.421875 470.507812 286.472656 469.726562 286.554688 C 468.941406 286.636719 468.164062 286.757812 467.390625 286.914062 C 466.617188 287.066406 465.851562 287.257812 465.097656 287.480469 C 464.339844 287.707031 463.597656 287.964844 462.867188 288.257812 C 462.132812 288.546875 461.417969 288.875 460.714844 289.230469 C 460.011719 289.589844 459.328125 289.980469 458.660156 290.398438 C 437.792969 299.753906 404.21875 328.289062 349.289062 382.964844 Z M 349.289062 382.964844 " fill-opacity="1" fill-rule="nonzero"/><path fill="#ffffff" d="M 412.375 452.042969 L 379.277344 418.230469 L 500.636719 298.3125 C 533.257812 330.210938 484.804688 383.453125 412.375 452.035156 Z M 412.375 452.042969 " fill-opacity="1" fill-rule="nonzero"/><path fill="#ff6c37" d="M 412.375 456.359375 C 411.285156 456.273438 410.328125 455.875 409.496094 455.164062 L 375.679688 422.070312 C 375.425781 421.453125 375.296875 420.8125 375.296875 420.148438 C 375.296875 419.484375 375.425781 418.84375 375.679688 418.230469 C 375.308594 417.1875 375.308594 416.148438 375.679688 415.109375 L 497.039062 293.761719 C 497.460938 293.367188 497.941406 293.0625 498.480469 292.847656 C 499.015625 292.632812 499.574219 292.527344 500.15625 292.527344 C 500.734375 292.527344 501.292969 292.632812 501.832031 292.847656 C 502.371094 293.0625 502.847656 293.367188 503.273438 293.761719 C 505.238281 295.570312 506.988281 297.566406 508.523438 299.753906 C 510.054688 301.9375 511.339844 304.261719 512.375 306.722656 C 513.410156 309.1875 514.171875 311.730469 514.65625 314.355469 C 515.144531 316.980469 515.34375 319.628906 515.261719 322.296875 C 515.261719 354.671875 478.320312 395.441406 415.488281 454.921875 C 414.621094 455.777344 413.582031 456.257812 412.367188 456.359375 Z M 385.507812 418.230469 L 412.609375 445.316406 C 460.574219 399.992188 506.390625 353.226562 506.625 321.570312 C 506.691406 319.90625 506.605469 318.25 506.367188 316.601562 C 506.128906 314.953125 505.742188 313.339844 505.210938 311.765625 C 504.679688 310.1875 504.007812 308.671875 503.199219 307.214844 C 502.386719 305.761719 501.453125 304.390625 500.394531 303.105469 Z M 385.507812 418.230469 " fill-opacity="1" fill-rule="nonzero"/><path fill="#ffffff" d="M 344.253906 383.695312 L 368.242188 407.679688 C 368.394531 407.816406 368.515625 407.980469 368.601562 408.167969 C 368.683594 408.355469 368.726562 408.550781 368.726562 408.757812 C 368.726562 408.964844 368.683594 409.164062 368.601562 409.351562 C 368.515625 409.539062 368.394531 409.703125 368.242188 409.839844 L 317.628906 420.628906 C 317.121094 420.742188 316.605469 420.765625 316.085938 420.707031 C 315.566406 420.648438 315.070312 420.511719 314.59375 420.289062 C 314.121094 420.070312 313.695312 419.78125 313.316406 419.417969 C 312.9375 419.058594 312.625 418.648438 312.382812 418.1875 C 312.136719 417.726562 311.972656 417.238281 311.886719 416.722656 C 311.804688 416.207031 311.804688 415.6875 311.886719 415.171875 C 311.972656 414.65625 312.136719 414.167969 312.378906 413.707031 C 312.625 413.246094 312.933594 412.832031 313.3125 412.472656 L 342.8125 383.21875 C 342.8125 383.21875 343.777344 383.21875 344.253906 383.695312 Z M 344.253906 383.695312 " fill-opacity="1" fill-rule="nonzero"/><path fill="#ff6c37" d="M 316.433594 425.421875 C 315.632812 425.414062 314.847656 425.304688 314.078125 425.089844 C 313.308594 424.878906 312.574219 424.574219 311.882812 424.175781 C 311.1875 423.777344 310.558594 423.296875 309.988281 422.734375 C 309.417969 422.175781 308.929688 421.550781 308.519531 420.863281 C 308.058594 419.996094 307.746094 419.074219 307.582031 418.105469 C 307.417969 417.132812 307.414062 416.160156 307.566406 415.1875 C 307.71875 414.214844 308.019531 413.292969 308.46875 412.417969 C 308.917969 411.542969 309.496094 410.761719 310.199219 410.070312 L 339.460938 380.574219 C 339.722656 380.339844 340 380.132812 340.300781 379.949219 C 340.601562 379.765625 340.914062 379.613281 341.242188 379.488281 C 341.570312 379.363281 341.90625 379.269531 342.25 379.207031 C 342.597656 379.140625 342.945312 379.109375 343.296875 379.109375 C 343.644531 379.109375 343.992188 379.140625 344.339844 379.207031 C 344.683594 379.269531 345.019531 379.363281 345.347656 379.488281 C 345.675781 379.613281 345.988281 379.765625 346.289062 379.949219 C 346.589844 380.132812 346.871094 380.339844 347.132812 380.574219 L 371.117188 404.558594 C 372.539062 405.910156 373.097656 407.949219 372.558594 409.839844 C 372.019531 411.726562 370.433594 413.230469 368.484375 413.679688 L 317.871094 424.46875 Z M 343.300781 388.972656 L 316.199219 416.070312 L 361.054688 406.476562 Z M 345.457031 386.816406 Z M 345.457031 386.816406 " fill-opacity="1" fill-rule="nonzero"/><path fill="#ffffff" d="M 563.480469 228.523438 C 546.121094 211.78125 518.847656 211.078125 500.644531 226.878906 C 482.441406 242.679688 479.328125 269.804688 493.503906 289.320312 C 507.679688 308.835938 534.402344 314.304688 555.085938 301.910156 L 522.464844 269.292969 Z M 563.480469 228.523438 " fill-opacity="1" fill-rule="nonzero"/><path fill="#ff6c37" d="M 531.101562 312.9375 C 528.621094 312.902344 526.15625 312.691406 523.707031 312.300781 C 521.257812 311.90625 518.851562 311.339844 516.484375 310.59375 C 514.121094 309.847656 511.820312 308.933594 509.589844 307.851562 C 507.355469 306.773438 505.214844 305.535156 503.164062 304.140625 C 501.113281 302.742188 499.175781 301.207031 497.351562 299.527344 C 495.527344 297.847656 493.832031 296.046875 492.269531 294.121094 C 490.707031 292.195312 489.296875 290.164062 488.03125 288.03125 C 486.765625 285.898438 485.664062 283.683594 484.726562 281.386719 C 483.785156 279.09375 483.019531 276.746094 482.421875 274.339844 C 481.824219 271.933594 481.40625 269.5 481.164062 267.03125 C 480.921875 264.566406 480.863281 262.09375 480.980469 259.621094 C 481.101562 257.144531 481.398438 254.691406 481.875 252.261719 C 482.351562 249.828125 483.003906 247.445312 483.828125 245.105469 C 484.652344 242.769531 485.640625 240.503906 486.796875 238.3125 C 487.953125 236.121094 489.261719 234.023438 490.722656 232.023438 C 492.183594 230.019531 493.78125 228.136719 495.519531 226.367188 C 496.703125 225.203125 497.945312 224.097656 499.238281 223.054688 C 500.53125 222.011719 501.871094 221.03125 503.261719 220.117188 C 504.648438 219.203125 506.078125 218.359375 507.546875 217.585938 C 509.019531 216.808594 510.523438 216.109375 512.0625 215.480469 C 513.601562 214.851562 515.164062 214.296875 516.757812 213.820312 C 518.351562 213.34375 519.960938 212.945312 521.59375 212.625 C 523.222656 212.304688 524.867188 212.0625 526.519531 211.902344 C 528.175781 211.742188 529.832031 211.660156 531.496094 211.660156 C 533.15625 211.660156 534.816406 211.742188 536.46875 211.902344 C 538.125 212.0625 539.765625 212.304688 541.398438 212.625 C 543.027344 212.945312 544.640625 213.34375 546.234375 213.820312 C 547.824219 214.296875 549.390625 214.851562 550.929688 215.480469 C 552.46875 216.109375 553.972656 216.808594 555.441406 217.585938 C 556.914062 218.359375 558.34375 219.203125 559.730469 220.117188 C 561.117188 221.03125 562.460938 222.011719 563.753906 223.054688 C 565.046875 224.097656 566.285156 225.203125 567.472656 226.367188 C 568.390625 227.140625 568.910156 228.28125 568.910156 229.488281 C 568.910156 230.085938 568.78125 230.660156 568.53125 231.203125 C 568.28125 231.75 567.925781 232.21875 567.472656 232.609375 L 528.617188 269.300781 L 558.117188 298.320312 C 558.605469 298.785156 558.953125 299.335938 559.164062 299.972656 C 559.375 300.609375 559.425781 301.257812 559.316406 301.917969 C 559.242188 302.554688 559.039062 303.148438 558.703125 303.691406 C 558.367188 304.238281 557.933594 304.6875 557.398438 305.039062 C 553.4375 307.515625 549.214844 309.425781 544.742188 310.769531 C 540.265625 312.113281 535.691406 312.839844 531.019531 312.953125 Z M 531.101562 219.882812 C 514.011719 219.972656 498.71875 230.253906 492.308594 245.964844 C 485.894531 261.675781 489.382812 279.761719 501.363281 291.828125 C 502.847656 293.320312 504.429688 294.691406 506.117188 295.941406 C 507.804688 297.191406 509.578125 298.3125 511.433594 299.296875 C 513.285156 300.285156 515.207031 301.125 517.1875 301.824219 C 519.167969 302.519531 521.191406 303.066406 523.257812 303.460938 C 525.320312 303.851562 527.402344 304.089844 529.5 304.171875 C 531.601562 304.253906 533.695312 304.175781 535.78125 303.941406 C 537.871094 303.710938 539.929688 303.320312 541.957031 302.777344 C 543.988281 302.234375 545.964844 301.546875 547.890625 300.707031 L 519.585938 272.402344 C 519.363281 272.222656 519.160156 272.019531 518.980469 271.796875 C 518.800781 271.570312 518.648438 271.328125 518.523438 271.066406 C 518.398438 270.808594 518.304688 270.539062 518.242188 270.257812 C 518.175781 269.976562 518.144531 269.691406 518.144531 269.402344 C 518.144531 269.117188 518.175781 268.832031 518.242188 268.550781 C 518.304688 268.269531 518.398438 268 518.523438 267.742188 C 518.648438 267.480469 518.800781 267.238281 518.980469 267.011719 C 519.160156 266.789062 519.363281 266.585938 519.585938 266.40625 L 557.003906 228.75 C 555.15625 227.335938 553.207031 226.078125 551.15625 224.976562 C 549.105469 223.878906 546.976562 222.953125 544.777344 222.195312 C 542.574219 221.441406 540.328125 220.871094 538.03125 220.480469 C 535.738281 220.089844 533.425781 219.890625 531.101562 219.875 Z M 531.101562 219.882812 " fill-opacity="1" fill-rule="nonzero"/><path fill="#ffffff" d="M 564.199219 229.246094 L 523.183594 270.011719 L 555.808594 302.628906 C 559.101562 300.738281 562.136719 298.5 564.917969 295.910156 C 565.972656 294.796875 566.976562 293.632812 567.917969 292.417969 C 568.863281 291.207031 569.746094 289.949219 570.570312 288.652344 C 571.394531 287.355469 572.15625 286.019531 572.851562 284.652344 C 573.546875 283.28125 574.175781 281.878906 574.734375 280.449219 C 575.296875 279.015625 575.785156 277.5625 576.207031 276.085938 C 576.628906 274.605469 576.976562 273.113281 577.253906 271.601562 C 577.53125 270.089844 577.734375 268.566406 577.867188 267.035156 C 577.996094 265.503906 578.054688 263.96875 578.039062 262.433594 C 578.019531 260.894531 577.929688 259.363281 577.765625 257.835938 C 577.601562 256.308594 577.367188 254.789062 577.058594 253.285156 C 576.746094 251.78125 576.367188 250.292969 575.914062 248.824219 C 575.460938 247.355469 574.9375 245.910156 574.347656 244.492188 C 573.753906 243.074219 573.097656 241.6875 572.371094 240.332031 C 571.648438 238.976562 570.859375 237.660156 570.007812 236.378906 C 569.15625 235.101562 568.246094 233.863281 567.273438 232.671875 C 566.304688 231.480469 565.277344 230.339844 564.199219 229.246094 Z M 564.199219 229.246094 " fill-opacity="1" fill-rule="nonzero"/><path fill="#ff6c37" d="M 555.078125 306.226562 C 554.53125 306.257812 554.007812 306.167969 553.503906 305.957031 C 553 305.746094 552.5625 305.4375 552.199219 305.03125 L 519.578125 272.414062 C 519.351562 272.234375 519.152344 272.03125 518.972656 271.804688 C 518.792969 271.578125 518.640625 271.335938 518.515625 271.078125 C 518.390625 270.816406 518.296875 270.546875 518.230469 270.265625 C 518.167969 269.984375 518.136719 269.703125 518.136719 269.414062 C 518.136719 269.125 518.167969 268.839844 518.230469 268.558594 C 518.296875 268.277344 518.390625 268.007812 518.515625 267.75 C 518.640625 267.488281 518.792969 267.246094 518.972656 267.023438 C 519.152344 266.796875 519.351562 266.59375 519.578125 266.414062 L 560.347656 226.367188 C 560.546875 226.070312 560.777344 225.800781 561.039062 225.5625 C 561.304688 225.320312 561.589844 225.117188 561.90625 224.949219 C 562.21875 224.78125 562.546875 224.652344 562.894531 224.566406 C 563.238281 224.480469 563.589844 224.4375 563.945312 224.4375 C 564.304688 224.4375 564.652344 224.480469 565 224.566406 C 565.34375 224.652344 565.675781 224.78125 565.988281 224.949219 C 566.300781 225.117188 566.589844 225.320312 566.855469 225.5625 C 567.117188 225.800781 567.347656 226.070312 567.542969 226.367188 C 568.738281 227.535156 569.871094 228.761719 570.941406 230.042969 C 572.015625 231.328125 573.019531 232.660156 573.957031 234.039062 C 574.898438 235.421875 575.765625 236.847656 576.5625 238.316406 C 577.359375 239.785156 578.082031 241.289062 578.730469 242.828125 C 579.375 244.371094 579.945312 245.9375 580.4375 247.535156 C 580.929688 249.132812 581.339844 250.75 581.667969 252.390625 C 582 254.027344 582.246094 255.675781 582.414062 257.339844 C 582.578125 259.003906 582.664062 260.667969 582.664062 262.339844 C 582.664062 264.011719 582.578125 265.675781 582.414062 267.339844 C 582.246094 269.003906 582 270.652344 581.667969 272.292969 C 581.339844 273.929688 580.929688 275.546875 580.4375 277.144531 C 579.945312 278.742188 579.375 280.308594 578.730469 281.851562 C 578.082031 283.390625 577.359375 284.894531 576.5625 286.363281 C 575.765625 287.832031 574.898438 289.257812 573.957031 290.640625 C 573.019531 292.023438 572.015625 293.355469 570.941406 294.636719 C 569.871094 295.917969 568.738281 297.144531 567.542969 298.3125 C 564.707031 301.320312 561.507812 303.878906 557.949219 305.984375 C 557.019531 306.453125 556.0625 306.53125 555.070312 306.226562 Z M 528.699219 269.300781 L 555.796875 296.398438 C 557.664062 295.089844 559.425781 293.648438 561.078125 292.082031 C 563.050781 290.113281 564.8125 287.972656 566.363281 285.660156 C 567.914062 283.347656 569.222656 280.90625 570.292969 278.332031 C 571.363281 275.761719 572.171875 273.109375 572.722656 270.378906 C 573.269531 267.648438 573.546875 264.890625 573.550781 262.105469 C 573.558594 259.609375 573.335938 257.132812 572.890625 254.679688 C 572.445312 252.222656 571.78125 249.828125 570.902344 247.492188 C 570.019531 245.15625 568.933594 242.917969 567.648438 240.78125 C 566.359375 238.640625 564.886719 236.636719 563.234375 234.765625 Z M 528.699219 269.300781 " fill-opacity="1" fill-rule="nonzero"/><path fill="#ffffff" d="M 503.992188 300.957031 C 503.1875 300.203125 502.316406 299.527344 501.386719 298.9375 C 500.453125 298.34375 499.472656 297.84375 498.445312 297.4375 C 497.421875 297.03125 496.363281 296.726562 495.28125 296.519531 C 494.195312 296.3125 493.101562 296.207031 491.996094 296.207031 C 490.894531 296.207031 489.796875 296.3125 488.714844 296.519531 C 487.628906 296.726562 486.574219 297.03125 485.546875 297.4375 C 484.519531 297.84375 483.542969 298.34375 482.609375 298.9375 C 481.675781 299.527344 480.808594 300.203125 480.003906 300.957031 L 371.363281 409.34375 L 389.351562 427.574219 L 504.234375 326.847656 C 504.671875 326.429688 505.085938 325.988281 505.476562 325.527344 C 505.867188 325.066406 506.238281 324.589844 506.578125 324.089844 C 506.921875 323.589844 507.238281 323.078125 507.53125 322.546875 C 507.820312 322.015625 508.082031 321.472656 508.316406 320.914062 C 508.550781 320.355469 508.757812 319.789062 508.933594 319.210938 C 509.113281 318.628906 509.257812 318.042969 509.375 317.449219 C 509.492188 316.859375 509.578125 316.257812 509.636719 315.65625 C 509.691406 315.054688 509.714844 314.449219 509.710938 313.847656 C 509.707031 313.242188 509.667969 312.636719 509.601562 312.035156 C 509.535156 311.433594 509.4375 310.839844 509.308594 310.246094 C 509.179688 309.65625 509.023438 309.074219 508.835938 308.496094 C 508.648438 307.921875 508.429688 307.359375 508.183594 306.804688 C 507.941406 306.253906 507.667969 305.714844 507.367188 305.1875 C 507.066406 304.664062 506.738281 304.152344 506.386719 303.660156 C 506.035156 303.171875 505.660156 302.699219 505.257812 302.242188 C 504.859375 301.789062 504.4375 301.359375 503.992188 300.949219 Z M 503.992188 300.957031 " fill-opacity="1" fill-rule="nonzero"/><path fill="#ff6c37" d="M 388.386719 431.898438 C 387.273438 431.871094 386.316406 431.472656 385.507812 430.703125 L 367.277344 412.472656 C 366.890625 412.070312 366.589844 411.609375 366.378906 411.089844 C 366.171875 410.574219 366.066406 410.035156 366.066406 409.472656 C 366.066406 408.914062 366.171875 408.375 366.378906 407.855469 C 366.589844 407.339844 366.890625 406.878906 367.277344 406.476562 L 475.929688 298.3125 C 476.707031 297.535156 477.539062 296.820312 478.421875 296.167969 C 479.308594 295.515625 480.238281 294.933594 481.207031 294.417969 C 482.179688 293.90625 483.183594 293.464844 484.222656 293.101562 C 485.261719 292.738281 486.320312 292.453125 487.398438 292.246094 C 488.480469 292.042969 489.570312 291.917969 490.667969 291.875 C 491.765625 291.832031 492.863281 291.871094 493.957031 291.992188 C 495.046875 292.113281 496.125 292.316406 497.1875 292.597656 C 498.253906 292.878906 499.289062 293.238281 500.296875 293.675781 C 501.304688 294.113281 502.277344 294.621094 503.210938 295.203125 C 504.144531 295.785156 505.027344 296.433594 505.863281 297.148438 C 506.699219 297.863281 507.476562 298.632812 508.199219 299.464844 C 508.917969 300.296875 509.574219 301.175781 510.164062 302.101562 C 510.753906 303.03125 511.269531 304 511.714844 305.003906 C 512.160156 306.007812 512.527344 307.042969 512.816406 308.101562 C 513.105469 309.164062 513.316406 310.238281 513.445312 311.332031 C 513.574219 312.421875 513.621094 313.519531 513.589844 314.617188 C 513.527344 316.117188 513.316406 317.597656 512.957031 319.054688 C 512.601562 320.515625 512.101562 321.921875 511.464844 323.28125 C 510.824219 324.640625 510.058594 325.921875 509.164062 327.128906 C 508.269531 328.335938 507.265625 329.441406 506.148438 330.445312 L 391.265625 431.171875 C 390.398438 431.785156 389.441406 432.023438 388.386719 431.890625 Z M 375.679688 409.34375 L 387.667969 421.574219 L 500.394531 323.484375 C 503.179688 321.058594 504.84375 317.585938 504.953125 313.890625 C 505.0625 310.191406 503.605469 306.578125 500.878906 304.058594 C 500.257812 303.4375 499.578125 302.886719 498.847656 302.398438 C 498.113281 301.910156 497.34375 301.5 496.53125 301.164062 C 495.714844 300.828125 494.878906 300.574219 494.015625 300.402344 C 493.152344 300.234375 492.28125 300.148438 491.402344 300.148438 C 490.523438 300.148438 489.652344 300.234375 488.789062 300.402344 C 487.929688 300.574219 487.089844 300.828125 486.277344 301.164062 C 485.464844 301.5 484.691406 301.910156 483.960938 302.398438 C 483.230469 302.886719 482.550781 303.4375 481.929688 304.058594 Z M 375.679688 409.34375 " fill-opacity="1" fill-rule="nonzero"/><path fill="#ffffff" d="M 287.175781 532.855469 C 286.859375 533.285156 286.703125 533.765625 286.703125 534.296875 C 286.703125 534.828125 286.859375 535.308594 287.175781 535.734375 L 291.96875 556.597656 C 292.066406 557.214844 292.070312 557.828125 291.980469 558.441406 C 291.890625 559.058594 291.714844 559.644531 291.445312 560.207031 C 291.179688 560.769531 290.835938 561.277344 290.417969 561.738281 C 289.996094 562.195312 289.519531 562.582031 288.984375 562.894531 C 288.449219 563.207031 287.878906 563.429688 287.273438 563.5625 C 286.671875 563.691406 286.058594 563.726562 285.445312 563.664062 C 284.828125 563.601562 284.238281 563.445312 283.671875 563.195312 C 283.105469 562.945312 282.589844 562.613281 282.128906 562.203125 L 249.273438 530.546875 L 351.691406 427.332031 L 387.191406 427.332031 L 411.179688 451.316406 C 392.46875 467.671875 372.734375 482.675781 351.96875 496.332031 C 331.203125 509.984375 309.605469 522.160156 287.175781 532.855469 Z M 287.175781 532.855469 " fill-opacity="1" fill-rule="nonzero"/><path fill="#ff6c37" d="M 285.015625 568.109375 C 282.300781 568.058594 279.621094 566.941406 277.820312 564.988281 L 246.40625 533.578125 C 246.179688 533.398438 245.976562 533.195312 245.796875 532.96875 C 245.617188 532.742188 245.464844 532.5 245.339844 532.242188 C 245.21875 531.980469 245.121094 531.710938 245.058594 531.429688 C 244.996094 531.148438 244.960938 530.867188 244.960938 530.578125 C 244.960938 530.289062 244.996094 530.003906 245.058594 529.722656 C 245.121094 529.441406 245.21875 529.171875 245.339844 528.914062 C 245.464844 528.652344 245.617188 528.410156 245.796875 528.1875 C 245.976562 527.960938 246.179688 527.757812 246.40625 527.578125 L 349.53125 424.21875 C 350.125 423.589844 350.84375 423.191406 351.691406 423.023438 L 387.425781 423.023438 C 388.386719 422.683594 389.34375 422.683594 390.304688 423.023438 L 414.292969 447.007812 C 414.753906 447.433594 415.089844 447.945312 415.304688 448.539062 C 415.515625 449.128906 415.574219 449.738281 415.488281 450.363281 C 415.503906 450.964844 415.386719 451.542969 415.132812 452.089844 C 414.878906 452.640625 414.519531 453.101562 414.046875 453.484375 L 412.132812 455.164062 C 393.347656 470.824219 373.660156 485.253906 353.074219 498.453125 C 332.488281 511.65625 311.160156 523.523438 289.089844 534.0625 L 293.652344 553.488281 C 293.738281 553.859375 293.804688 554.238281 293.851562 554.621094 C 293.898438 555 293.921875 555.382812 293.925781 555.765625 C 293.929688 556.148438 293.910156 556.53125 293.871094 556.914062 C 293.832031 557.296875 293.773438 557.675781 293.691406 558.050781 C 293.609375 558.425781 293.507812 558.792969 293.386719 559.15625 C 293.261719 559.519531 293.121094 559.875 292.957031 560.222656 C 292.796875 560.570312 292.617188 560.910156 292.414062 561.238281 C 292.214844 561.566406 292 561.878906 291.765625 562.183594 C 291.53125 562.488281 291.277344 562.777344 291.011719 563.050781 C 290.746094 563.328125 290.464844 563.585938 290.167969 563.832031 C 289.871094 564.074219 289.5625 564.304688 289.242188 564.511719 C 288.921875 564.722656 288.589844 564.914062 288.246094 565.085938 C 287.902344 565.261719 287.550781 565.414062 287.191406 565.546875 C 286.832031 565.679688 286.46875 565.792969 286.09375 565.886719 C 285.722656 565.980469 285.347656 566.054688 284.964844 566.105469 C 284.585938 566.15625 284.203125 566.1875 283.820312 566.195312 Z M 255.757812 530.457031 L 284.054688 558.992188 C 284.1875 559.109375 284.335938 559.199219 284.5 559.261719 C 284.664062 559.324219 284.835938 559.355469 285.011719 559.355469 C 285.1875 559.355469 285.359375 559.324219 285.523438 559.261719 C 285.691406 559.199219 285.839844 559.109375 285.96875 558.992188 C 286.152344 558.742188 286.242188 558.460938 286.242188 558.152344 C 286.242188 557.839844 286.152344 557.5625 285.96875 557.308594 L 281.175781 536.445312 C 280.988281 535.695312 280.929688 534.9375 281.003906 534.167969 C 281.078125 533.402344 281.277344 532.667969 281.605469 531.96875 C 281.933594 531.269531 282.371094 530.644531 282.914062 530.097656 C 283.457031 529.546875 284.078125 529.109375 284.773438 528.773438 C 306.25 518.375 327.019531 506.71875 347.078125 493.800781 C 367.136719 480.882812 386.34375 466.796875 404.695312 451.550781 L 385.023438 431.878906 L 352.886719 431.878906 Z M 290.296875 534.773438 Z M 290.296875 534.773438 " fill-opacity="1" fill-rule="nonzero"/><path fill="#ffffff" d="M 224.574219 555.160156 L 248.5625 531.175781 L 285.503906 568.109375 L 226.742188 564.035156 C 226.238281 563.996094 225.753906 563.882812 225.285156 563.6875 C 224.816406 563.496094 224.390625 563.234375 224.003906 562.90625 C 223.621094 562.578125 223.296875 562.199219 223.03125 561.769531 C 222.765625 561.335938 222.570312 560.875 222.453125 560.386719 C 222.332031 559.894531 222.292969 559.394531 222.328125 558.890625 C 222.367188 558.386719 222.480469 557.898438 222.671875 557.429688 C 222.863281 556.964844 223.125 556.535156 223.449219 556.148438 C 223.777344 555.761719 224.15625 555.4375 224.585938 555.167969 Z M 224.574219 555.160156 " fill-opacity="1" fill-rule="nonzero"/><path fill="#ff6c37" d="M 286.214844 571.707031 L 227.6875 567.632812 C 224.214844 567.308594 221.230469 564.9375 220.007812 561.761719 C 218.785156 558.585938 219.53125 554.820312 221.929688 552.28125 L 245.917969 528.296875 C 246.320312 527.910156 246.78125 527.609375 247.300781 527.398438 C 247.820312 527.191406 248.359375 527.085938 248.917969 527.085938 C 249.476562 527.085938 250.015625 527.191406 250.535156 527.398438 C 251.054688 527.609375 251.515625 527.910156 251.917969 528.296875 L 288.613281 564.988281 C 288.867188 565.339844 289.0625 565.714844 289.195312 566.125 C 289.328125 566.535156 289.398438 566.957031 289.394531 567.386719 C 289.398438 567.816406 289.328125 568.238281 289.195312 568.648438 C 289.0625 569.058594 288.867188 569.433594 288.613281 569.785156 C 288.042969 570.707031 287.242188 571.347656 286.214844 571.699219 Z M 227.6875 558.28125 L 275.652344 561.402344 L 249.273438 536.695312 Z M 227.6875 558.28125 " fill-opacity="1" fill-rule="nonzero"/><path fill="#ffffff" d="M 390.546875 430.226562 L 342.09375 437.664062 L 370.15625 409.847656 Z M 390.546875 430.226562 " fill-opacity="1" fill-rule="nonzero"/><path fill="#ff6c37" d="M 342.09375 442.207031 C 341.691406 442.214844 341.296875 442.167969 340.90625 442.0625 C 340.519531 441.957031 340.152344 441.796875 339.8125 441.582031 C 339.472656 441.371094 339.167969 441.109375 338.902344 440.808594 C 338.636719 440.503906 338.421875 440.171875 338.253906 439.804688 C 338 439.457031 337.804688 439.078125 337.667969 438.667969 C 337.535156 438.257812 337.46875 437.839844 337.46875 437.40625 C 337.46875 436.976562 337.535156 436.554688 337.667969 436.144531 C 337.804688 435.738281 338 435.359375 338.253906 435.011719 L 366.074219 406.953125 C 366.496094 406.554688 366.976562 406.25 367.511719 406.035156 C 368.050781 405.824219 368.609375 405.71875 369.191406 405.71875 C 369.769531 405.71875 370.328125 405.824219 370.867188 406.035156 C 371.402344 406.25 371.882812 406.554688 372.304688 406.953125 L 392.707031 427.332031 C 393.121094 427.988281 393.328125 428.710938 393.328125 429.488281 C 393.328125 430.269531 393.121094 430.988281 392.707031 431.648438 C 392.605469 432.039062 392.453125 432.414062 392.246094 432.761719 C 392.039062 433.113281 391.785156 433.425781 391.488281 433.703125 C 391.191406 433.976562 390.859375 434.207031 390.496094 434.386719 C 390.132812 434.570312 389.75 434.695312 389.351562 434.769531 L 341.382812 442.207031 Z M 370.15625 416.0625 L 354.570312 431.648438 L 381.433594 427.574219 Z M 370.15625 416.0625 " fill-opacity="1" fill-rule="nonzero"/><path fill="#ffffff" d="M 390.546875 430.207031 L 356.726562 434.523438 C 356.277344 434.628906 355.820312 434.65625 355.355469 434.613281 C 354.894531 434.566406 354.453125 434.449219 354.027344 434.261719 C 353.601562 434.074219 353.21875 433.828125 352.875 433.515625 C 352.53125 433.203125 352.246094 432.847656 352.015625 432.441406 C 351.789062 432.039062 351.628906 431.609375 351.539062 431.152344 C 351.449219 430.699219 351.429688 430.242188 351.488281 429.78125 C 351.546875 429.320312 351.675781 428.878906 351.875 428.460938 C 352.074219 428.042969 352.332031 427.664062 352.652344 427.332031 L 370.164062 409.820312 Z M 390.546875 430.207031 " fill-opacity="1" fill-rule="nonzero"/><path fill="#ff6c37" d="M 355.765625 439.09375 C 354.980469 439.085938 354.210938 438.976562 353.457031 438.765625 C 352.703125 438.554688 351.988281 438.25 351.316406 437.847656 C 350.640625 437.449219 350.03125 436.964844 349.484375 436.402344 C 348.9375 435.84375 348.476562 435.21875 348.09375 434.535156 C 347.636719 433.714844 347.320312 432.839844 347.148438 431.917969 C 346.972656 430.992188 346.953125 430.066406 347.082031 429.136719 C 347.210938 428.203125 347.488281 427.316406 347.90625 426.476562 C 348.324219 425.636719 348.867188 424.882812 349.53125 424.21875 L 367.042969 406.707031 C 367.464844 406.3125 367.945312 406.007812 368.484375 405.792969 C 369.023438 405.582031 369.582031 405.472656 370.160156 405.472656 C 370.738281 405.472656 371.296875 405.582031 371.835938 405.792969 C 372.375 406.007812 372.855469 406.3125 373.277344 406.707031 L 393.667969 427.097656 C 393.972656 427.382812 394.226562 427.707031 394.4375 428.070312 C 394.644531 428.429688 394.796875 428.816406 394.894531 429.222656 C 394.992188 429.628906 395.03125 430.039062 395.007812 430.457031 C 394.988281 430.871094 394.90625 431.277344 394.769531 431.671875 C 394.628906 432.066406 394.4375 432.429688 394.191406 432.769531 C 393.945312 433.105469 393.65625 433.402344 393.324219 433.65625 C 392.992188 433.910156 392.632812 434.113281 392.242188 434.261719 C 391.851562 434.410156 391.449219 434.5 391.03125 434.535156 L 357.457031 438.851562 Z M 355.765625 430.21875 L 381.191406 427.097656 L 369.921875 415.828125 L 355.53125 430.21875 Z M 564.433594 256.828125 C 564.207031 256.449219 563.921875 256.121094 563.574219 255.847656 C 563.230469 255.574219 562.847656 255.375 562.425781 255.242188 C 562.003906 255.109375 561.574219 255.054688 561.136719 255.078125 C 560.695312 255.105469 560.273438 255.207031 559.871094 255.386719 C 559.035156 255.8125 558.476562 256.472656 558.199219 257.367188 C 557.921875 258.257812 558 259.121094 558.433594 259.949219 C 560.113281 263.480469 559.648438 267.664062 557.238281 270.738281 C 556.605469 271.367188 556.304688 272.125 556.335938 273.015625 C 556.347656 273.886719 556.644531 274.648438 557.238281 275.289062 C 557.875 275.542969 558.515625 275.542969 559.152344 275.289062 C 559.722656 275.433594 560.285156 275.417969 560.847656 275.246094 C 561.410156 275.074219 561.882812 274.765625 562.273438 274.328125 C 563.261719 273.117188 564.0625 271.796875 564.675781 270.363281 C 565.289062 268.925781 565.691406 267.433594 565.882812 265.882812 C 566.074219 264.335938 566.042969 262.789062 565.796875 261.25 C 565.550781 259.707031 565.097656 258.230469 564.433594 256.816406 Z M 564.433594 256.828125 " fill-opacity="1" fill-rule="nonzero"/></svg>